<?xml version="1.0" encoding="UTF-8" standalone="no"?>
<svg width="1104px" height="836px" viewBox="0 0 1104 836" version="1.1" xmlns="http://www.w3.org/2000/svg" xmlns:xlink="http://www.w3.org/1999/xlink">
    <!-- Generator: Sketch 39.1 (31720) - http://www.bohemiancoding.com/sketch -->
    <title>chromium-and-node</title>
    <desc>Created with Sketch.</desc>
    <defs></defs>
    <g id="Page-1" stroke="none" stroke-width="1" fill="none" fill-rule="evenodd">
        <g id="chromium-and-node">
            <g id="Group-2" transform="translate(49.000000, 54.000000)">
                <g id="Page-1-Copy">
                    <path d="M707.322294,277.089854 C748.252217,268.465269 751.778642,239.031367 749.756379,221.130339 C748.185365,206.973318 739.37766,194.170155 726.324876,188.621004 C717.249764,184.843569 704.447673,182.871281 687.21666,187.049858 C641.25615,198.098018 644.98313,228.651779 644.98313,228.651779 C644.98313,228.651779 648.492841,289.491873 707.322294,277.089854 L707.322294,277.089854 Z M727.695334,193.969583 C728.998942,194.437584 736.118642,197.496303 740.480713,205.736458 L719.00462,217.018619 L727.695334,193.969583 Z M718.620223,217.21919 L718.419668,217.419762 C718.219113,217.21919 718.219113,216.951761 717.968419,216.951761 C718.152261,216.951761 718.152261,216.951761 718.620223,217.21919 L718.620223,217.21919 Z M709.545111,266.977695 C710.196915,266.509695 710.848719,265.673979 711.500522,265.005407 C712.419732,264.353548 713.255378,263.450976 713.923894,262.331117 C714.826392,261.227972 715.67875,260.108113 716.59796,259.004969 C717.500458,257.701252 718.352816,256.330679 719.272026,255.026963 C720.191237,253.723246 720.84304,252.152101 721.494844,250.580956 C722.146647,249.009811 722.597896,247.522237 723.049145,245.951092 C723.2497,244.379946 723.968355,242.875658 723.968355,241.321227 C723.968355,240.652655 724.16891,239.750082 724.16891,239.098224 L724.16891,236.875221 C724.16891,235.571504 723.968355,234.200931 723.700948,232.897214 C723.517106,231.576784 723.2497,230.473639 722.798451,229.554352 C722.146647,227.598778 721.494844,226.027632 721.026882,224.924488 C720.84304,224.723916 720.84304,224.473202 720.575634,224.27263 C720.575634,224.072058 720.375079,224.072058 720.375079,224.072058 L720.191237,223.620772 L741.199368,216.567332 C741.199368,216.567332 741.199368,216.567332 741.399923,217.486619 C741.399923,217.937906 741.600478,218.389192 741.600478,218.790336 C741.600478,219.241622 741.600478,219.709623 741.801033,220.361481 C741.984875,222.56777 741.984875,225.442632 741.600478,228.785494 C741.399923,230.540497 740.948674,232.295499 740.681268,234.067216 C740.029464,235.822219 739.762057,237.844651 738.926412,239.816939 C738.45845,240.719512 738.274608,241.772514 737.806647,242.691801 C737.355398,243.594374 736.904149,244.446804 736.235633,245.549948 C735.333136,247.522237 734.029528,249.076668 732.725921,250.848385 C731.405601,252.41953 730.035142,253.907104 728.547693,255.478249 C726.976679,256.781965 725.673072,258.152539 724.102058,259.272398 C722.531044,260.375542 721.227437,261.227972 719.656423,262.331117 C718.352816,263.250404 716.781803,263.902262 715.67875,264.55412 C714.375143,265.205978 713.255378,265.857836 712.152326,266.125265 C711.049273,266.576552 710.196915,267.044553 709.47826,267.22841 C707.907246,267.880268 707.054887,268.147697 707.054887,268.147697 C707.054887,268.147697 708.425346,268.08084 709.545111,266.977695 L709.545111,266.977695 Z" id="Fill-1" fill="#3E863D"></path>
                    <path d="M240.79805,228.718637 C299.61079,241.321227 303.137215,180.263848 303.137215,180.263848 C303.137215,180.263848 306.931046,149.776944 260.903684,138.678641 C243.672671,134.500063 230.803729,136.255066 221.795469,140.249787 C208.542129,145.798938 199.934979,158.585386 198.363965,172.759122 C196.341703,190.459578 199.667572,219.826623 240.79805,228.718637 L240.79805,228.718637 Z M229.95137,168.513687 C229.95137,168.513687 229.767528,168.714259 229.500121,168.964973 L229.299567,168.781116 L229.95137,168.513687 L229.95137,168.513687 Z M220.491862,145.531509 L229.115725,168.513687 L207.639632,157.214813 C212.068554,149.058229 218.920848,145.982795 220.491862,145.531509 L220.491862,145.531509 Z M208.742684,191.947152 C207.823474,189.991577 207.439077,187.969146 206.987828,186.214143 C206.519867,184.241854 206.068618,182.419994 206.068618,180.915706 C205.600656,177.589558 205.600656,174.514125 205.868063,172.491693 C205.868063,172.040407 205.868063,171.388549 206.068618,170.937262 C206.068618,170.469262 206.269173,170.017975 206.269173,169.616832 L206.453015,168.714259 L227.477859,175.767698 L227.277304,176.218985 C227.277304,176.218985 227.277304,176.218985 227.093462,176.419556 C227.093462,176.603414 226.892907,176.870843 226.625501,177.071415 C226.174252,177.973987 225.321893,179.478275 224.870645,181.701279 C224.402683,182.821138 224.402683,183.924282 223.951434,185.027427 C223.951434,186.147286 223.500186,187.701717 223.500186,189.022147 L223.500186,191.228436 C223.500186,191.880294 223.700741,192.799581 223.700741,193.45144 C223.700741,195.022585 224.352544,196.526873 224.603238,198.098018 C225.0712,199.652449 225.723003,201.156737 226.174252,202.727882 C226.826055,204.031599 227.477859,205.602744 228.397069,207.173889 C229.299567,208.477606 230.151925,209.848179 231.071135,211.151895 C231.990345,212.25504 233.026546,213.374899 233.745201,214.478043 C234.664411,215.581188 235.51677,216.433618 236.168574,217.152333 C237.071071,217.804191 237.722875,218.456049 238.123984,219.107908 C239.227037,220.227766 239.87884,220.879625 239.87884,220.879625 C239.87884,220.879625 238.976343,220.428338 237.472181,219.960337 C236.820377,219.759766 235.700612,219.308479 234.798115,218.857193 C233.67835,218.389192 232.575297,217.937906 231.27169,217.286048 C229.95137,216.634189 228.580911,215.982331 227.277304,215.063044 C225.973697,214.143757 224.402683,213.10747 222.848382,212.004325 C221.277368,210.884466 219.973761,209.58075 218.402747,208.210177 C217.09914,206.90646 215.728681,205.134743 214.224519,203.580312 C213.121467,201.808595 211.81786,200.23745 210.698095,198.281876 C210.246846,197.379303 209.778885,196.326301 209.127081,195.407014 C209.661894,193.785726 209.193933,192.866439 208.742684,191.947152 L208.742684,191.947152 Z" id="Fill-2" fill="#4071D9"></path>
                    <polygon id="Fill-3" fill-opacity="0.5" fill="#6BBF47" points="693.734696 129.803342 746.43051 25.8570397 754.335717 29.8350458 701.639904 133.781348"></polygon>
                    <polygon id="Fill-4" fill-opacity="0.5" fill="#6BBF47" points="720.508782 134.433206 789.18214 53.2183674 795.917444 58.8845189 727.227373 140.116072"></polygon>
                    <polygon id="Fill-5" fill-opacity="0.5" fill="#6BBF47" points="747.86782 148.723942 846.641134 80.1116943 851.67172 87.3657055 752.898407 155.977954"></polygon>
                    <path d="M72.0979102,600.411493 L70.794303,599.759634 L63.9420088,643.300415 C63.9420088,643.768416 62.1704401,655.050576 69.2232892,664.327019 C74.1201726,670.7286 81.8248254,674.506035 92.2035441,675.625894 C93.7745579,675.826465 95.0781651,675.826465 96.3817723,675.826465 C108.331505,675.826465 115.835603,670.076742 120.281237,664.778306 C124.726872,659.697155 127.601493,653.028145 128.437139,645.974705 L132.882774,612.161653 L131.579166,612.161653 C127.601493,611.894224 92.4709507,610.79108 72.0979102,600.411493 L72.0979102,600.411493 Z" id="Fill-7" fill="#4071D9"></path>
                    <path d="M92.0197021,503.969916 L91.3678985,503.969916 L80.0699695,541.326402 L72.2984652,589.764476 L72.9502688,590.215763 C91.9528504,600.862779 131.963563,603.018925 132.431525,603.018925 L133.334022,603.018925 L140.83812,550.402273 L158.085846,520.299798 L156.966081,519.848512 C156.782239,519.898655 120.933041,501.763627 92.0197021,503.969916 L92.0197021,503.969916 Z" id="Fill-8" fill="#A2C3FA"></path>
                    <path d="M60.3487326,248.357952 L50.1705688,242.424372 C41.346151,237.326507 30.9005806,236.022791 21.825469,238.897652 C15.6249784,240.853227 10.343698,244.446804 6.36602479,249.27724 C2.57219362,254.174533 0.616782843,259.924256 0.616782843,266.509695 C0.817337795,278.460427 7.66963198,289.759302 18.4995994,295.893454 L26.4716587,300.339461 L29.3462797,298.768315 C50.1037172,283.107006 59.8306323,250.982099 59.8306323,250.580956 L60.3487326,248.357952 Z" id="Fill-9" fill="#A2C3FA"></path>
                    <path d="M191.511671,616.540803 L190.391906,615.888945 L177.79037,644.420274 C174.013252,653.028145 172.709644,662.104016 173.812697,670.929172 C175.584265,684.434336 182.887808,693.44335 194.837541,697.036926 C198.815214,698.340643 202.8096,698.808643 206.586718,698.808643 C212.33596,698.808643 218.085202,697.488213 223.366483,694.630066 C232.174188,689.983487 239.026482,681.375617 242.168509,671.380459 L252.814635,636.180119 L251.511027,635.996261 C245.694934,635.528261 215.14373,632.26897 191.511671,616.540803 L191.511671,616.540803 Z" id="Fill-10" fill="#4071D9"></path>
                    <path d="M210.313698,530.094385 L209.394488,530.294956 L210.49754,570.960876 L195.221938,608.317362 L195.873741,608.768648 C219.773206,624.897959 253.399587,627.304819 253.600142,627.304819 L254.502639,627.304819 L272.402168,572.013878 L278.335252,540.139686 L277.416042,539.688399 C276.179287,539.170256 243.672671,525.197091 210.313698,530.094385 L210.313698,530.094385 Z" id="Fill-11" fill="#A2C3FA"></path>
                    <path d="M436.255564,353.607971 L438.210975,352.705398 L436.255564,351.585539 C408.846387,335.205514 377.894073,317.304487 377.894073,317.304487 L345.186903,289.425015 L344.535099,290.344303 C344.334544,290.544874 344.083851,290.795589 343.883296,290.996161 L321.755399,306.924899 C319.799989,308.228616 316.858516,307.844187 315.554909,305.821755 C314.903105,304.902468 314.635698,303.598751 314.903105,302.495607 C315.086947,301.375748 315.805602,300.272604 316.657961,299.620745 L338.986412,283.692007 L325.465666,272.19256 C325.666221,271.991989 325.666221,271.540702 325.933627,271.089416 C326.585431,269.317699 339.838771,226.880062 343.432047,211.40261 C344.735654,205.201601 344.083851,199.652449 341.20923,195.290014 C339.253819,192.214581 336.56304,190.392721 334.356935,189.07229 C335.259433,182.035565 335.459988,174.714697 334.540777,167.410543 C328.99209,122.749903 287.861612,90.8924252 243.20471,96.4415765 C210.046291,100.620154 183.940722,124.053619 174.86561,154.339951 C171.790434,153.888665 168.197158,154.156094 164.486891,156.111668 C159.188898,158.98653 156.063583,164.535681 154.943818,172.692265 C152.988407,188.169717 147.890969,235.955933 147.890969,236.357077 C147.890969,237.25965 147.890969,237.911508 148.091524,238.563366 L135.690543,245.616805 L152.269752,267.947125 C152.921556,268.866412 153.188962,270.170129 153.188962,271.273273 C152.988407,272.393132 152.269752,273.496277 151.417394,274.148135 C149.461983,275.451851 146.52051,275.067422 145.216903,273.245562 L129.088942,251.366528 C129.088942,251.366528 128.9051,251.165957 128.9051,250.915242 L128.437139,249.995955 L96.1979302,268.147697 L69.4238442,252.670245 L68.9725956,253.973961 C67.2010268,259.523112 57.4741117,287.803727 37.5690327,303.933038 L36.2654255,305.036182 L95.0781651,337.74609 L135.105591,326.447215 L116.955368,421.969504 L94.6269165,495.362046 L96.1979302,495.362046 C126.932977,493.7909 160.759912,511.290784 162.063519,511.942643 L162.982729,512.393929 L183.088363,477.66159 L207.439077,483.411313 L209.010091,521.018514 L210.113143,520.817942 C243.271562,516.188078 273.572072,527.67081 279.321314,530.094385 L280.624921,530.545671 L313.983895,353.674828 L371.493027,383.777303 L410.601243,402.580903 L410.601243,400.809186 C408.194583,366.86242 431.626087,355.630403 436.255564,353.607971 L436.255564,353.607971 Z M260.519287,386.785879 C259.399522,386.785879 258.095915,386.785879 256.992863,386.585307 L171.205482,371.107855 C160.358802,369.152281 153.055259,358.705836 155.077521,347.674391 L162.397777,307.459757 C163.300275,302.161321 166.37545,297.531456 170.804372,294.389166 C174.146955,291.982305 178.124628,290.862446 182.302856,290.862446 C183.405908,290.862446 184.709516,290.862446 185.829281,291.063018 L271.616661,306.54047 C282.446629,308.496045 289.766884,318.942489 287.744622,329.973935 L280.424366,370.188568 C278.602659,379.73244 270.246203,386.785879 260.519287,386.785879 L260.519287,386.785879 Z M331.666156,201.674881 C332.785922,203.446598 332.986477,206.120888 332.334673,209.196321 C329.460052,221.59834 319.532582,253.856961 316.206712,264.487263 L296.101078,247.254808 C304.25698,242.156943 311.376681,235.755362 317.577171,227.999921 C323.978217,219.826623 328.607693,210.750752 331.482314,201.223594 C331.482314,201.290452 331.482314,201.491023 331.666156,201.674881 L331.666156,201.674881 Z M197.060358,134.500063 C208.542129,119.674469 225.388745,110.147312 244.12392,107.723737 C247.199096,107.27245 250.073717,107.071879 252.948338,107.071879 C268.608337,107.071879 283.683384,112.169744 296.28492,121.897473 C311.109274,133.380205 320.635634,150.22823 323.059006,168.964973 C325.465666,187.768574 320.38494,206.321459 308.685902,221.130339 C297.204131,235.955933 280.357515,245.499805 261.62234,247.906666 C242.820313,250.330241 224.285693,245.232376 209.461339,233.549073 C194.636986,222.049626 185.110626,205.201601 182.687253,186.464857 C181.584201,178.308274 182.03545,170.335547 183.807018,162.580107 L183.807018,162.112106 C185.962984,152.384377 190.391906,142.924076 197.060358,134.500063 L197.060358,134.500063 Z M165.656795,174.514125 C166.108044,171.455406 166.960402,167.4774 169.433913,166.106826 C170.353124,165.638826 171.205482,165.438254 172.124692,165.438254 C171.004927,172.759122 170.804372,180.263848 171.924137,187.969146 C173.495151,200.371165 177.673379,211.603182 184.057712,221.59834 L159.322601,232.897214 C160.308663,220.294624 163.885226,186.932858 165.656795,174.514125 L165.656795,174.514125 Z" id="Fill-12" fill="#4071D9"></path>
                    <path d="M818.112192,381.754871 L854.145232,391.282029 L931.308749,348.393106 C944.378247,341.072238 952.333593,327.366502 951.68179,313.192766 C951.481235,306.139327 949.27513,299.938317 945.03005,294.857167 C940.383861,289.107444 934.651332,285.129437 927.531631,282.906434 C917.152912,279.580286 905.654428,281.134717 895.676819,286.88444 L852.574218,311.638335 L823.20963,295.041024 L824.513237,293.286021 L819.616354,293.08545 L800.162524,282.254576 C799.042759,271.60756 795.065085,234.719074 793.31023,221.464625 C792.190464,213.308042 789.132001,207.558318 783.767156,204.884029 C780.240732,202.928454 776.463614,202.661025 773.588993,203.112312 C773.121031,201.808595 772.669782,200.438022 772.285385,199.334877 C783.115353,193.133868 812.296098,176.536557 841.476844,158.652243 C916.885506,112.437172 917.737864,104.263874 918.189113,100.285868 C919.308878,91.0094253 915.966295,82.134126 908.930159,76.8524036 C901.609903,71.3032522 891.882988,70.6513941 881.704824,74.6294002 C876.807941,76.5849746 873.080962,76.5849746 870.206341,74.8299719 C866.028112,72.1389678 864.273257,65.5535291 864.00585,61.7593805 C863.554601,53.6027965 859.827622,46.2986425 853.827686,42.1200646 C848.930803,38.7772023 840.106385,35.7184834 825.482586,40.5489193 C819.549502,42.5044938 814.652619,42.5044938 810.858788,40.3483476 C805.310101,37.2729143 803.805939,30.169332 803.805939,29.9687603 C803.805939,29.5174739 801.399279,18.0180276 791.404957,11.8170181 C785.003912,7.83901203 777.24912,6.9197249 768.174009,9.39344298 C758.630936,11.8170181 752.22989,10.5133018 748.519624,5.41543688 C745.845558,1.88871718 741.667329,-0.133714491 737.02114,0.133714491 C732.391663,0.334286227 728.41399,2.80800431 725.990617,6.98658215 L635.306353,169.951118 C623.373334,182.553709 615.852523,198.482447 613.646419,215.915474 C612.727208,223.219628 612.727208,230.540497 613.830261,237.593936 C611.607443,238.69708 608.933377,240.652655 606.977966,243.794945 C604.103345,248.240952 603.200848,253.723246 604.755149,259.924256 C607.62977,272.978133 617.824647,305.236754 621.150516,316.067628 L602.799738,331.745652 L567.418502,362.232556 L544.170841,375.286433 L472.95712,405.388908 C477.586597,399.38847 479.341453,393.170746 478.305252,386.785879 C477.185487,379.916297 473.007259,373.53143 467.007323,370.00471 C460.155029,366.00999 458.333321,364.906846 449.709458,359.625123 C448.8571,359.424551 441.152447,359.22398 433.380943,366.477991 C424.957635,374.434003 420.595565,388.156453 420.328158,407.14391 L439.781988,417.33964 C442.004806,418.442785 444.879427,418.894071 447.93789,418.894071 C449.25821,418.894071 450.812511,418.710214 452.383525,418.442785 C444.61202,426.866798 439.130185,439.66996 445.53123,455.130698 C452.18297,471.076151 465.636864,475.706015 477.135348,475.706015 C482.684035,475.706015 487.764761,474.602871 491.49174,473.483012 L579.033977,436.795099 L630.81058,409.834914 L550.972996,683.398048 L560.23195,678.300183 C560.432505,678.300183 578.783283,668.371882 594.510134,683.581906 C619.245244,707.934657 636.743664,695.73321 643.144709,689.331629 C647.774186,684.701765 657.768508,682.478761 665.924409,684.434336 C670.102638,685.554195 675.651325,688.228484 677.874142,695.081352 C680.949318,704.60851 689.172071,712.113235 699.751345,714.988097 L701.706755,721.389678 C705.23318,733.139839 713.205239,742.867568 723.383403,747.898576 C729.132645,750.773437 735.132581,752.344583 741.533626,752.344583 C745.711854,752.344583 750.157489,751.692725 754.586411,750.389008 C768.491554,746.21043 777.366111,735.095413 778.686431,720.286534 C778.870273,718.514817 779.13768,714.336239 778.870273,709.438945 C795.26564,717.411672 808.51898,712.313807 817.777934,705.460939 C819.348947,709.639517 821.77232,713.233094 824.830783,716.759814 C829.928221,722.693394 838.552084,729.362405 852.256672,729.362405 C853.827686,729.362405 855.315135,729.362405 856.886149,729.161833 C876.33998,727.206258 884.763287,717.2111 887.370502,709.054516 C890.713084,709.706374 894.423351,709.973803 898.016627,709.255088 C907.091739,707.934657 914.411995,702.586078 919.89383,693.577064 C924.974555,685.42048 930.723797,680.773902 937.392249,679.670757 C944.695792,678.567612 950.896283,682.094332 953.319655,684.300621 C958.400381,688.746628 971.854275,690.501631 982.951649,686.072338 C993.330368,681.89376 999.530859,673.469747 1000.45007,661.970301 C1000.78433,656.371007 1001.88738,643.500987 909.448259,509.987068 C867.014174,448.478402 823.660879,388.992168 818.112192,381.754871 Z M901.275645,296.545312 C908.595901,292.366734 916.952357,291.26359 924.2559,293.670451 C929.152783,295.241596 933.331012,298.116457 936.406188,301.843749 C939.080254,305.169897 940.383861,308.880474 940.584416,313.59391 C941.035664,323.505496 935.035729,333.500654 925.760062,338.598519 L916.233702,343.880242 C901.87731,331.478223 893.253447,311.170335 890.11142,302.746322 L901.275645,296.545312 Z M778.73657,214.544901 C781.159942,215.848617 782.262994,219.826623 782.530401,222.968913 C784.101415,234.000359 786.976036,261.679259 788.463485,276.705424 L765.683785,267.880268 C771.232472,258.353111 774.758896,247.973523 776.32991,236.674649 C777.24912,229.169923 777.24912,221.397768 776.129355,214.143757 C776.981714,213.893042 777.900924,214.093614 778.73657,214.544901 L778.73657,214.544901 Z M734.09638,11.5495891 C734.998877,10.2458729 736.302484,9.34330005 737.873498,9.14272831 C739.444512,9.14272831 740.748119,9.79458645 741.851171,10.897731 C746.0294,16.6474541 754.653263,22.3971772 771.04863,18.2185994 C777.700369,16.4468824 783.182204,16.9148831 787.427284,19.5223157 C794.079023,23.5003218 795.850592,31.9243347 795.850592,31.9243347 C795.850592,32.3923354 798.07341,42.7719228 807.148521,48.0536451 C813.081605,51.5803648 820.652555,51.8477938 829.009011,48.9729323 C837.632874,46.0980707 844.685723,46.2986425 849.582606,49.4242187 C854.863887,53.2183674 855.783097,59.6032343 855.983652,62.0268094 C856.167494,67.1246744 858.657718,77.30369 866.161816,82.134126 C869.938934,84.5577011 876.33998,86.5801328 885.615646,82.5854124 C892.668495,79.7272652 899.320234,79.9111226 903.966424,83.7052713 C908.395346,87.0314192 910.618163,92.7811423 909.698953,98.7147229 C906.64049,108.258595 836.713664,152.451234 769.076506,190.710293 C766.669847,185.42857 763.527819,180.531277 759.817553,175.884698 C746.296806,158.652243 727.110383,147.553941 705.433735,144.946508 C687.283512,142.723505 669.383982,146.517653 653.924538,155.593524 L734.09638,11.5495891 Z M625.061338,217.419762 C627.48471,198.616162 637.01107,182.035565 651.835424,170.335547 C664.43696,160.607818 679.445156,155.526667 695.172006,155.526667 C698.046627,155.526667 701.121803,155.710525 703.996424,156.178525 C722.798451,158.585386 739.37766,168.129258 751.059986,182.938138 C762.809164,197.763732 767.639196,216.299903 765.433091,235.103504 C763.009719,253.907104 753.483359,270.504415 738.659005,282.187719 C726.057469,292.11602 710.581312,297.19717 694.854461,297.013313 C684.475742,295.893454 673.829617,293.219164 666.776768,291.063018 C656.130643,286.433154 646.671134,279.112285 639.367591,269.585128 C627.735404,254.759534 622.654679,236.223362 625.061338,217.419762 L625.061338,217.419762 Z M615.785671,257.634395 C615.133868,254.558962 615.334423,251.884672 616.454188,250.129669 C616.454188,249.929098 616.63803,249.929098 616.905437,249.678383 C619.780058,259.205541 624.409534,268.465269 630.81058,276.437996 C635.908018,282.839577 641.841102,288.5893 648.308999,293.219164 L630.610025,308.228616 C626.431797,295.041024 618.209044,268.732698 615.785671,257.634395 L615.785671,257.634395 Z M487.580919,463.103425 C485.358101,463.755283 463.480898,470.424293 455.525552,451.152692 C447.553493,431.897805 466.806768,420.398359 469.029585,419.094643 L487.580919,411.138631 C493.514003,416.035924 508.58905,431.045376 504.34397,455.799271 L487.580919,463.103425 Z M767.522205,718.514817 C766.870402,725.835685 763.343977,735.295985 751.126838,739.090134 C742.970937,741.496995 735.199432,741.045708 728.146583,737.518989 C720.642485,733.72484 714.625837,726.487543 712.018622,717.612244 L711.366819,715.38924 C718.219113,714.737382 724.16891,711.862521 728.146583,707.215942 C734.347074,700.179217 742.319133,691.939062 750.274479,691.554632 C754.068311,691.354061 757.594735,692.858349 761.305002,696.451926 C763.076571,698.023071 764.647584,699.527359 766.201885,700.897932 L766.018043,700.897932 C767.906602,706.313369 767.906602,713.617523 767.522205,718.514817 L767.522205,718.514817 Z M855.51569,717.411672 C846.256737,718.330959 838.735926,715.639955 833.003397,708.987659 C829.476972,705.009653 827.905959,702.134791 827.254155,698.156785 C838.735926,690.835917 851.989266,686.38991 861.983588,695.281924 C864.206405,697.237498 869.755092,701.666791 876.807941,705.009653 C875.170076,708.987659 870.540599,715.840527 855.51569,717.411672 L855.51569,717.411672 Z" id="Fill-6" fill="#75BB5A"></path>
                    <path d="M959.210991,674.389035 C954.564801,670.411028 945.690245,666.232451 935.963329,667.736739 C929.562284,668.639311 920.286617,672.634032 912.331271,685.621052 C908.153043,692.473919 903.055604,696.268068 896.654559,697.371213 C886.476395,698.942358 874.994624,692.741348 867.674368,686.339767 C858.398702,678.183183 841.167689,672.817889 813.290551,694.947638 C801.80878,704.023509 789.859047,704.023509 776.806262,695.148209 C773.731086,692.992063 770.655911,690.518345 767.78129,687.643483 C762.232603,682.545619 756.299519,679.871329 750.099028,680.322615 C738.801099,680.991188 729.074184,690.718917 721.770641,699.126215 C717.97681,703.572222 710.923961,705.527797 703.620418,704.023509 C696.951966,702.719792 688.996619,698.2905 686.372692,689.665915 C683.698626,681.241902 677.113738,675.492179 668.038627,673.28589 C665.364561,672.634032 662.48994,672.366603 659.615319,672.366603 C650.790901,672.366603 642.116899,675.425322 636.835619,680.523187 C627.091991,690.250916 614.507168,688.295342 600.602024,674.589606 C588.652292,663.09016 574.747149,662.438302 564.752827,664.661305 L641.264541,402.647761 L633.309194,347.356819 L617.632482,332.079938 C641.983196,320.580492 663.592992,317.70563 681.743215,323.655925 C704.72347,331.411366 714.450385,351.067396 714.717792,351.267967 L721.369531,365.174275 L723.1411,349.696822 C725.547759,327.834503 741.67572,312.557622 770.923317,304.785468 C784.82846,300.991319 798.800455,299.888174 807.424318,299.487031 L795.274031,315.88377 L810.098384,382.87473 C899.211635,504.889203 992.753807,642.264128 991.383348,657.74158 C990.998951,665.965022 987.021278,671.514173 979.767874,674.589606 C971.344566,677.915754 961.417095,676.344609 959.210991,674.389035 Z" id="Path-Copy" fill="#CAFFBB"></path>
                </g>
            </g>
            <path d="M522.838156,459.465774 L522.515946,459.601974 C527.223446,453.500408 529.007877,447.177894 527.954213,440.685419 C526.815576,433.70006 522.566929,427.207586 516.465874,423.621429 C509.498094,419.559383 507.645685,418.437647 498.876479,413.066909 C498.009755,412.862956 490.175252,412.659004 482.27277,420.035271 C473.7075,428.12537 469.271913,442.079092 469,461.386555 L488.781696,471.754119 C491.041976,472.875855 493.965044,473.334748 497.075053,473.334748 C497.47107,473.334748 497.887787,473.318481 498.319536,473.288566 C507.591975,470.825782 516.071168,466.131912 522.838156,459.465774 Z" id="Combined-Shape" fill="#A2C3FA"></path>
        </g>
    </g>
</svg>