<?xml version="1.0" encoding="UTF-8" standalone="no"?>
<svg width="1440px" height="456px" viewBox="0 0 1440 456" version="1.1" xmlns="http://www.w3.org/2000/svg" xmlns:xlink="http://www.w3.org/1999/xlink">
    <!-- Generator: Sketch 41.2 (35397) - http://www.bohemiancoding.com/sketch -->
    <title>divide</title>
    <desc>Created with Sketch.</desc>
    <defs></defs>
    <g id="Page-1" stroke="none" stroke-width="1" fill="none" fill-rule="evenodd">
        <g id="divide">
            <g id="js" transform="translate(75.000000, 161.000000)">
                <g id="js-logo">
                    <rect id="background" fill="#F7DF1E" x="0" y="0" width="134" height="134"></rect>
                    <path d="M35.2334921,111.980131 L45.4882143,105.774123 C47.4665754,109.281786 49.2662698,112.24946 53.5829841,112.24946 C57.7207659,112.24946 60.3295119,110.630879 60.3295119,104.334952 L60.3295119,61.5187619 L72.9220556,61.5187619 L72.9220556,104.513087 C72.9220556,117.555754 65.276877,123.492433 54.1227063,123.492433 C44.0490437,123.492433 38.2016984,118.275206 35.2334921,111.979067" id="j" fill="#000000"></path>
                    <path d="M79.7619048,110.630825 L90.0152976,104.694147 C92.7144405,109.102056 96.222369,112.340123 102.428643,112.340123 C107.646401,112.340123 110.973536,109.73143 110.973536,106.133317 C110.973536,101.815806 107.555738,100.286504 101.79879,97.7686865 L98.6513849,96.4185833 C89.5659722,92.5514603 83.5391627,87.6942262 83.5391627,77.4400357 C83.5391627,67.9954286 90.7350159,60.7990437 101.979052,60.7990437 C109.984488,60.7990437 115.741171,63.5877857 119.878421,70.8737698 L110.073821,77.1699087 C107.914933,73.3025198 105.576845,71.7734841 101.979052,71.7734841 C98.291127,71.7734841 95.9522421,74.1121032 95.9522421,77.1699087 C95.9522421,80.9479643 98.291127,82.4772659 103.687552,84.8161508 L106.835488,86.1651905 C117.539536,90.7528294 123.566345,95.4298016 123.566345,105.953321 C123.566345,117.287488 114.66146,123.493496 102.698504,123.493496 C91.0051429,123.493496 83.4492976,117.917075 79.7619048,110.630825" id="s" fill="#000000"></path>
                </g>
            </g>
            <g id="ruby" transform="translate(1271.000000, 182.000000)" fill-opacity="0.5" fill="#FFFFFF">
                <path d="M26.9616954,82.3452049 C48.73727,85.2247403 70.1239326,88.0567362 91.9345443,90.943063 C84.5031696,78.952922 77.2644991,67.2683921 69.9662655,55.4887832 C55.6676138,64.4194178 41.5021032,73.2651604 26.9651991,82.3452049 L26.9616954,82.3452049 Z M98.0835602,15.9766676 C96.1635256,18.771311 94.2399873,21.5625588 92.3234565,24.3572022 C85.7399802,33.9567855 79.156504,43.5563688 72.5800352,53.1593477 C72.2121454,53.6958649 71.7391441,54.1203247 72.2541899,54.942079 C78.6099248,65.1121362 84.913104,75.3127546 91.2338018,85.5031859 C92.2323599,87.1127375 93.2379255,88.7154978 94.5307955,90.2605316 C95.8061469,65.526409 97.0850021,40.7922864 98.3638572,16.0581639 C98.269257,16.0309984 98.1746567,16.003833 98.0835602,15.9800633 L98.0835602,15.9766676 Z M11.3316329,47.6855139 C11.6294485,47.9605639 12.3687318,48.1167651 12.7155994,47.9537725 C18.8120596,45.0504673 24.9470606,42.2116801 30.9068759,39.0672817 C32.8514365,38.0417868 34.3475218,36.2081204 36.0222965,34.7174175 C41.5686738,29.7868922 47.1080436,24.84618 52.6439097,19.9054677 C52.9837699,19.6032523 53.3831931,19.3078282 53.5864085,18.9275122 C55.5765173,15.1617047 57.5280853,11.3755231 59.5532312,7.48067985 C57.1391732,6.6011991 54.8547525,5.74209243 52.5387984,4.96108636 C52.2269679,4.85582033 51.7294407,5.0663524 51.3895806,5.24971904 C46.0289001,8.14962852 40.5701157,10.8967325 35.3811171,14.0615049 C32.784866,15.6438911 30.6686235,17.9801179 28.3701879,20.0107337 C24.6632598,23.2875635 20.9633392,26.5745803 17.3124705,29.9091367 C16.3419421,30.7954088 15.4590065,31.8039253 14.7057082,32.8701684 C12.2075611,36.3948827 9.78649556,39.9705322 7.25331126,43.6446564 C8.6688112,45.0674457 9.95817749,46.4257172 11.3351366,47.6889096 L11.3316329,47.6855139 Z M33.6082384,42.8704417 C30.5775269,55.2850425 27.5608303,67.6317297 24.4460296,80.3825027 C39.0495043,71.2617101 53.3201263,62.3514496 67.4926443,53.5023113 C56.214193,49.9640142 44.9707788,46.4359042 33.6082384,42.8738374 L33.6082384,42.8704417 Z M94.3591136,16.0955163 C82.0190373,18.0921753 69.9732729,20.0446905 57.7733452,22.0175797 C61.9287485,31.8141123 66.0000627,41.4136956 70.1905031,51.2883288 C78.2945907,39.4883459 86.2375074,27.9260604 94.3626173,16.0955163 L94.3591136,16.0955163 Z M34.1162768,40.3304742 C45.2300536,43.8280231 56.1195928,47.2542627 67.3279698,50.7789771 C63.1655591,40.9518833 59.1468006,31.4677531 55.043953,21.7866736 C48.0540461,27.9803913 41.1727542,34.0790299 34.1162768,40.3304742 L34.1162768,40.3304742 Z M11.7906192,54.9251006 C7.84894242,64.0560802 4.04391039,72.8746574 0.168804106,81.8528315 C7.61769738,81.6389037 14.8388493,81.4317673 22.3052612,81.2178396 C18.7980447,72.4501976 15.3609025,63.8523395 11.7906192,54.9217049 L11.7906192,54.9251006 Z M22.5645359,74.9765824 C22.6556324,74.959604 22.746729,74.9358343 22.8413292,74.9188559 C25.4971435,64.2088857 28.1950023,53.5702248 30.9103796,42.4391905 C24.855964,45.4885099 19.0818454,48.3952107 13.1500598,51.3868035 C16.1772676,59.0134975 19.404187,67.05786 22.5680396,74.9765824 L22.5645359,74.9765824 Z M89.8918798,14.3603246 C86.3566337,13.4536784 82.8213875,12.5436366 79.2861414,11.6403861 C74.2022542,10.3466325 69.1148633,9.06646173 64.0344798,7.75912549 C63.4003078,7.59613292 62.9413215,7.48747121 62.5664242,8.23112481 C60.7725233,11.7965873 58.9190592,15.3348843 57.0971286,18.8867641 C57.0410692,18.9954258 57.0515804,19.1380443 57.0095358,19.4130943 C68.0182012,17.7967513 78.9532887,16.1905953 89.8848724,14.5844394 C89.8883761,14.5097344 89.8883761,14.4350295 89.8918798,14.3603246 L89.8918798,14.3603246 Z M69.3846492,6.25144421 C78.876207,8.79820313 88.3712685,11.3415664 98.195679,13.9766129 C96.5419266,9.41282094 95.0108041,5.18180547 93.4341334,0.828545566 C85.365083,2.56373731 77.3976402,4.2751593 69.4266937,5.98658129 C69.4126789,6.07486893 69.398664,6.15976089 69.3846492,6.24804853 L69.3846492,6.25144421 Z M25.0101274,84.4029861 C21.4398441,84.0056917 17.7784643,84.372425 14.1591291,84.4301515 C11.1844769,84.4810867 8.21332854,84.5897484 5.24218015,84.678036 C4.93385343,84.6882231 4.62903042,84.7459496 4.32420741,85.0651434 C28.9027522,87.2689388 53.4812971,89.4693385 78.0563382,91.6731338 C78.0738568,91.5678678 78.0878716,91.4592061 78.1053902,91.3539401 C70.2255402,90.3114667 62.349194,89.2689934 54.4693441,88.2265201 C44.651941,86.9259752 34.8520565,85.4997902 25.0101274,84.3995904 L25.0101274,84.4029861 Z M0.652316463,73.6352894 C3.81967278,66.5145515 6.97301424,59.3836265 10.1543854,52.2696799 C10.4732233,51.5565874 10.4486973,51.0710054 9.8250364,50.4971357 C8.49362556,49.2712958 7.26031868,47.9469811 5.8062779,46.4834437 C3.84069505,55.8894733 1.92416419,65.0578054 0.00763331981,74.2295331 C0.0777075745,74.2600942 0.151285542,74.294051 0.221359797,74.3280078 C0.368515732,74.1004973 0.547205081,73.8831739 0.655820176,73.6386851 L0.652316463,73.6352894 Z M63.0744625,4.3702383 C68.4141208,3.03573662 73.8343644,1.98986763 79.2195708,0.825149888 C79.5664384,0.75044496 79.9098022,0.638387568 80.2531661,0.543308568 C80.2356475,0.458416604 80.218129,0.373524641 80.2006104,0.288632677 C72.6150723,1.27677514 65.0260305,2.26831327 57.0550841,3.30739091 C59.227386,4.2276198 60.9021607,4.91354686 63.0744625,4.37363397 L63.0744625,4.3702383 Z" id="Shape"></path>
            </g>
            <g id="php" opacity="0.5" transform="translate(581.000000, 212.000000)" fill="#FFFFFF">
                <path d="M29.6301238,11.2313333 L9.31566977,11.2313333 L0.533393821,54.3297037 L10.9645869,54.3297037 L13.1614361,43.1580741 L23.0446971,43.1580741 C32.3749051,43.6891111 42.811219,36.2397037 42.811219,23.47 C42.811219,16.0205926 38.4175206,11.7623704 29.6352447,11.2313333 L29.6301238,11.2313333 Z M21.943712,35.1776296 L15.3531644,35.1776296 L18.0979457,19.2167407 L25.2364254,19.2167407 C29.0770709,19.2167407 31.826973,20.8148148 31.826973,24.006 C31.2790409,33.0534815 26.8853425,34.6465926 21.943712,35.1776296 L21.943712,35.1776296 Z M66.4132656,11.2313333 L56.5300046,11.2313333 L58.7268538,0.0597037037 L48.2956607,0.0597037037 L39.5133848,43.1580741 L49.9445778,43.1580741 L54.8862083,19.2167407 L63.1205522,19.2167407 C66.9663185,19.2167407 66.9663185,20.8148148 66.4132656,23.474963 L62.5726201,43.163037 L73.5517453,43.163037 L77.3923907,21.3458519 C78.4882549,16.0255556 75.1955415,11.7673333 66.4132656,11.2362963 L66.4132656,11.2313333 Z M103.196407,11.2313333 L82.8819533,11.2313333 L74.0996773,54.3297037 L84.5308704,54.3297037 L86.7277196,43.1580741 L96.6109806,43.1580741 C105.946309,43.6891111 116.377503,36.2397037 116.377503,23.47 C116.377503,16.0205926 111.983804,11.7623704 103.201528,11.2313333 L103.196407,11.2313333 Z M95.5099956,35.1776296 L88.9194479,35.1776296 L91.6642292,19.2167407 L98.8027089,19.2167407 C102.648475,19.2167407 105.393257,20.8148148 105.393257,24.006 C104.845324,33.0534815 100.451626,34.6465926 95.5099956,35.1776296 L95.5099956,35.1776296 Z" id="Shape"></path>
            </g>
            <g id="python" transform="translate(1053.000000, 182.000000)" fill-opacity="0.5" fill="#FFFFFF">
                <path d="M44.4959822,54.96 L72.2356841,54.96 C79.9579419,54.96 86.1234581,48.800963 86.1234581,41.2820741 L86.1234581,15.6533333 C86.1234581,8.35777778 79.7735909,2.87866667 72.2356841,1.66274074 C67.463042,0.893481481 62.5162906,0.541111111 57.7692529,0.565925926 C53.0222151,0.590740741 48.4851326,0.977851852 44.4959822,1.66274074 C32.7436071,3.67274074 30.6082082,7.8862963 30.6082082,15.6533333 L30.6082082,25.9117778 L58.3786353,25.9117778 L58.3786353,29.3312593 L20.182136,29.3312593 C12.1116597,29.3312593 5.04487202,34.0311852 2.83266023,42.9794074 C0.282471651,53.2328889 0.169812718,59.6301481 2.83266023,70.3352593 C4.80419157,78.3057778 9.52050419,83.9834074 17.5909805,83.9834074 L27.1413856,83.9834074 L27.1413856,71.6851852 C27.1413856,62.8014815 35.0735986,54.964963 44.4908613,54.964963 L44.4959822,54.96 Z M42.7446478,19.0728148 C39.8667242,19.0728148 37.5316117,16.7848889 37.5316117,13.960963 C37.5316117,11.1221481 39.8616033,8.81437037 42.7446478,8.81437037 C45.6123298,8.81437037 47.9576839,11.1221481 47.9576839,13.960963 C47.9576839,16.7898519 45.6174506,19.0728148 42.7446478,19.0728148 L42.7446478,19.0728148 Z M113.888764,42.9744444 C111.89675,35.1875556 108.086829,29.3262963 100.00099,29.3262963 L89.580039,29.3262963 L89.580039,41.2771111 C89.580039,50.542963 81.4737166,58.3447407 72.2305632,58.3447407 L44.4908613,58.3447407 C36.8915042,58.3447407 30.6030873,64.6477037 30.6030873,72.0226667 L30.6030873,97.6514074 C30.6030873,104.946963 37.1475472,109.234963 44.4908613,111.329333 C53.283379,113.83563 61.7123155,114.287259 72.2305632,111.329333 C79.220538,109.368963 86.1183372,105.418444 86.1183372,97.6514074 L86.1183372,87.392963 L58.3786353,87.392963 L58.3786353,83.9734815 L100.006111,83.9734815 C108.076587,83.9734815 111.082533,78.5191852 113.893885,70.3253333 C116.792292,61.8932593 116.669392,53.7887407 113.893885,42.9694815 L113.888764,42.9744444 Z M73.9818975,94.2368889 C76.8598212,94.2368889 79.1949337,96.5248148 79.1949337,99.3487407 C79.1949337,102.187556 76.8598212,104.495333 73.9818975,104.495333 C71.1142156,104.495333 68.7688614,102.187556 68.7688614,99.3487407 C68.7688614,96.5198519 71.1090947,94.2368889 73.9818975,94.2368889 L73.9818975,94.2368889 Z" id="Shape"></path>
            </g>
            <g id="java" transform="translate(381.000000, 162.000000)" fill-opacity="0.5" fill="#FFFFFF">
                <path d="M31.577483,99.3511111 C31.577483,99.3511111 26.5487979,102.184963 35.1569646,103.147778 C45.5881576,104.299185 50.9240944,104.135407 62.4204265,102.026148 C62.4204265,102.026148 65.4417342,103.862444 69.6664442,105.455556 C43.8931528,116.160667 11.3398419,104.835185 31.5826039,99.3511111 L31.577483,99.3511111 Z M28.4281537,85.3803704 C28.4281537,85.3803704 22.7849654,89.4301481 31.4033738,90.2937037 C42.5463664,91.4054074 51.3491258,91.4997037 66.5785653,88.6559259 C66.5785653,88.6559259 68.683239,90.7254815 71.9964358,91.857037 C40.835999,100.686148 6.12680579,92.5518519 28.4281537,85.3803704 L28.4281537,85.3803704 Z M54.979816,61.6822222 C61.3296832,68.7693333 53.3104154,75.1467407 53.3104154,75.1467407 C53.3104154,75.1467407 69.4360055,67.0819259 62.0312411,56.9773333 C55.1129584,47.5576296 49.8128677,42.8775556 78.5255331,26.738 C78.5255331,26.738 33.4568389,37.6465926 54.979816,61.6871852 L54.979816,61.6822222 Z M89.0642642,109.684 C89.0642642,109.684 92.7871299,112.656815 84.9624549,114.954667 C70.0863548,119.322074 23.0461292,120.642222 9.97769297,115.12837 C5.28186379,113.148148 14.089744,110.398667 16.8601296,109.822963 C19.748295,109.217481 21.402333,109.326667 21.402333,109.326667 C16.1790552,105.758296 -12.3646219,116.329407 6.9051766,119.356815 C59.4554482,127.615185 102.695995,115.639556 89.0642642,109.679037 L89.0642642,109.684 Z M33.9945292,70.9083704 C33.9945292,70.9083704 10.0647476,76.4172593 25.5195049,78.4173333 C32.0434813,79.266 45.0504673,79.0724444 57.1715443,78.0897778 C67.0752888,77.2808148 77.0200001,75.5586667 77.0200001,75.5586667 C77.0200001,75.5586667 73.5275731,77.0078519 71.0029889,78.6803704 C46.7045053,84.8741481 -0.23330309,81.9906667 13.2806481,75.6579259 C24.7104089,70.3028889 33.9996501,70.9133333 33.9996501,70.9133333 L33.9945292,70.9083704 Z M76.9227037,94.1598519 C101.625735,81.7226667 90.2010953,69.7668889 82.2330362,71.3748889 C80.2768674,71.766963 79.4063211,72.1094074 79.4063211,72.1094074 C79.4063211,72.1094074 80.1334833,71.0076296 81.5161157,70.5311852 C97.2832455,65.1562963 109.414564,86.3779259 76.4259802,94.7851852 C76.4259802,94.7851852 76.8100448,94.4526667 76.9227037,94.1598519 L76.9227037,94.1598519 Z M62.0261202,0.672518519 C62.0261202,0.672518519 75.7039389,13.9335556 49.0498594,34.3263704 C27.6753872,50.6842963 44.1748001,60.0146667 49.0396177,70.6701481 C36.5652013,59.7615556 27.4091025,50.1582222 33.5490144,41.2199259 C42.5668499,28.0978519 67.5412871,21.7402963 62.0209993,0.672518519 L62.0261202,0.672518519 Z M36.4218172,127.868296 C60.1314018,129.337333 96.5407207,127.05437 97.4010253,116.180519 C97.4010253,116.180519 95.7418665,120.304741 77.8086126,123.575333 C57.5709715,127.267778 32.6118969,126.836 17.8126097,124.468667 C17.8126097,124.468667 20.8441592,126.900519 36.426938,127.868296 L36.4218172,127.868296 Z" id="Shape"></path>
            </g>
            <g id="dotnet" opacity="0.5" transform="translate(800.000000, 207.000000)" fill="#FFFFFF">
                <path d="M37.8110026,3.74459259 C38.0209578,3.6502963 38.236034,3.56096296 38.4511101,3.48155556 C38.2411549,3.56096296 38.0260787,3.65525926 37.8110026,3.74459259 L37.8110026,3.74459259 Z M6.66080747,59.4191111 L7.30603591,59.4191111 L11.9404148,59.4191111 L13.6661448,59.4191111 L14.0655719,59.4191111 L14.5315702,59.4191111 L14.5622954,59.4191111 L14.7568881,59.4191111 L14.8029758,59.4191111 C14.8285801,59.4191111 14.8593053,59.4488889 14.8900305,59.4439259 C27.067437,58.8384444 32.7106254,52.734 35.5475822,43.9396296 C37.7546731,37.1155556 39.5623369,31.3734074 41.1498037,26.5494074 L41.1498037,26.5543704 C41.1702871,26.4948148 41.1856497,26.4402222 41.2061331,26.3806667 C45.031416,21.1794815 48.9847204,16.688 52.5488394,13.0451852 L52.5488394,13.0451852 L52.6307732,13.0451852 C58.0844897,29.2095556 60.1891634,58.0493333 76.1406442,58.0493333 C76.7858727,58.0493333 77.4567054,58.0642222 78.1070547,57.9997037 C77.4567054,58.0642222 76.8268396,58.1485926 76.1816111,58.1485926 L88.8506203,58.1485926 C87.9544697,58.1485926 87.1044068,58.0195556 86.2850691,57.8557778 C85.7678622,57.7515556 85.2660178,57.5977037 84.7744152,57.4339259 C85.2660178,57.5927407 85.7678622,57.7168148 86.29019,57.8160741 C87.1095277,57.9798519 87.9595905,58.0542963 88.8506203,58.0542963 C91.2010953,58.0542963 93.1623849,57.8805926 94.8727523,57.3396296 C93.1623849,57.8805926 91.2010953,58.1436296 88.8506203,58.1436296 L101.243103,58.1436296 L101.243103,58.1436296 L101.560596,58.1436296 L101.560596,58.1436296 L101.570838,58.1436296 L101.575959,58.1188148 L106.251305,58.0741481 C105.652164,58.0741481 105.09399,57.9699259 104.5563,57.7962222 C104.561421,57.7862963 104.571662,57.7813333 104.576783,57.7714074 C105.104232,57.9252593 105.652164,57.955037 106.241063,57.955037 C118.546491,57.955037 130.954336,36.5398519 151.483866,0.965333333 L143.423632,0.965333333 L143.428753,1.28296296 L141.92834,1.28296296 C134.359709,14.3057778 129.069859,25.4327407 124.583986,34.3263704 C129.07498,25.4228148 134.359709,14.3057778 141.92322,1.28296296 L130.85704,1.28296296 L130.227174,1.28296296 L129.633154,1.28296296 L129.60755,1.28296296 C129.197881,1.28296296 128.803575,1.22837037 128.409268,1.25318519 C128.409268,1.25814815 128.404148,1.21844444 128.404148,1.22837037 C116.51863,1.92318519 110.957376,7.76955556 108.161386,16.4497778 C103.265843,31.6165926 100.300865,41.4333333 97.4485452,47.7015556 C97.4485452,47.7015556 97.4485452,47.6965926 97.4485452,47.7015556 C97.4485452,47.7164444 97.4383035,47.7164444 97.4383035,47.7214074 L97.4383035,47.7065185 C96.1273632,48.9472593 94.7652143,50.0788148 93.4337905,51.1061481 C92.7373535,51.6421481 92.0409164,52.1483704 91.3393585,52.6248148 C91.9231366,53.3047407 92.5222773,53.94 93.1521432,54.5206667 C94.1046232,55.418963 95.1236745,56.1733333 96.2349013,56.754 L96.2297804,56.754 C95.1185536,56.1733333 94.0995024,55.418963 93.1419015,54.5206667 C92.5120356,53.94 91.9180158,53.3047407 91.3291168,52.6248148 L91.3291168,52.6248148 C92.0306747,52.1483704 92.7219909,51.6371852 93.4184279,51.1011852 C89.5829033,42.8676296 87.355329,28.877037 83.2227945,17.9833333 C87.355329,28.8720741 89.5880242,42.8676296 93.4184279,51.1011852 C94.7498517,50.0738519 96.0812754,48.9422963 97.4178201,47.7015556 C91.8770489,31.6116296 89.890155,2.35992593 73.8311361,2.35992593 C72.6994259,2.35992593 71.557474,2.46414815 70.4206429,2.66266667 C71.557474,2.45918519 72.6994259,2.35496296 73.8311361,2.35496296 L67.517115,2.27059259 C68.5208036,2.27059259 69.4681629,2.54355556 70.3694343,2.54355556 L70.3694343,2.54355556 C69.4681629,2.54355556 68.5208036,2.27059259 67.5222358,2.27059259 C67.4351812,2.27059259 67.3481266,2.25074074 67.2610719,2.2557037 C67.3481266,2.2557037 67.4351812,2.22592593 67.5222358,2.22592593 L42.1227672,2.22592593 C41.9793831,2.22592593 41.835999,2.20607407 41.687494,2.20607407 C27.8304452,2.20607407 8.73475602,27.3137037 0.131710195,59.3992593 L1.78574817,59.3992593 L1.78574817,59.3992593 L6.65056575,59.3992593 L6.66080747,59.4191111 Z M127.845974,2.35 L127.845974,2.35 C123.713439,3.61059259 120.671648,5.7942963 118.413349,8.6877037 C120.671648,5.7942963 123.708318,3.61059259 127.845974,2.35 L127.845974,2.35 Z M108.42767,56.2775556 C108.386703,56.2974074 108.350857,56.3172593 108.309891,56.3371111 C108.253561,56.3668889 108.192111,56.3917037 108.135781,56.4214815 C108.13066,56.4214815 108.12554,56.4264444 108.12554,56.4264444 C108.227957,56.3768148 108.325253,56.3271852 108.42767,56.2825185 L108.42767,56.2775556 Z M106.742907,57.0021481 C106.768512,56.9822963 106.794116,56.9822963 106.824841,56.9723704 C106.799237,56.9872593 106.773632,56.9922222 106.748028,57.0021481 C106.691699,57.026963 106.635369,57.0418519 106.57904,57.0617037 C106.635369,57.0418519 106.686578,57.022 106.742907,57.0021481 L106.742907,57.0021481 Z M106.543194,57.0815556 L106.543194,57.0815556 L106.538073,57.0815556 L106.543194,57.0815556 L106.543194,57.0815556 Z M105.262979,57.4984444 C105.360275,57.4686667 105.447329,57.4438519 105.539505,57.419037 C105.585593,57.3991852 105.63168,57.3842963 105.677768,57.3743704 C105.734098,57.3545185 105.785306,57.3396296 105.831394,57.3197778 C105.887724,57.2999259 105.944053,57.29 105.990141,57.2701481 C106.036228,57.2502963 106.077195,57.2403704 106.123283,57.2205185 C106.230821,57.1808148 106.338359,57.151037 106.451018,57.1113333 C106.466381,57.1113333 106.481743,57.1063704 106.491985,57.0964444 C106.481743,57.1014074 106.466381,57.1063704 106.456139,57.1113333 C106.348601,57.151037 106.241063,57.1808148 106.133525,57.2205185 C106.087437,57.2403704 106.041349,57.2502963 106.000382,57.2651852 C105.954295,57.285037 105.897965,57.2999259 105.841636,57.3148148 C105.795548,57.3346667 105.739219,57.3445926 105.682889,57.3694074 C105.636801,57.3892593 105.590714,57.3942222 105.544626,57.4140741 C105.447329,57.4388889 105.360275,57.4637037 105.268099,57.4934815 C105.262979,57.4934815 105.252737,57.4984444 105.247616,57.4984444 C105.252737,57.4984444 105.257858,57.4934815 105.262979,57.4934815 L105.262979,57.4984444 Z M38.4511101,3.5162963 L38.4511101,3.47659259 C38.4511101,3.47659259 38.4818353,3.5162963 38.4869562,3.5162963 L38.4869562,3.5162963 C38.2155506,3.5162963 37.9492658,3.69992593 37.682981,3.80911111 C37.7239479,3.78925926 37.7700357,3.76444444 37.8110026,3.74955556 C37.5959264,3.83888889 37.3808503,3.93318519 37.1657741,4.03244444 C37.0531152,4.08703704 36.9353354,4.13666667 36.8226765,4.19622222 L38.4511101,3.5162963 Z M40.9449693,2.66266667 C40.9091232,2.68251852 40.8835189,2.75696296 40.8527938,2.75696296 C40.6274759,2.81155556 40.402158,2.87111111 40.1768402,2.93066667 C40.1512359,2.93066667 40.1307524,2.95051852 40.1000273,2.95548148 C40.0385769,2.97037037 39.9771266,2.99022222 39.9105554,3.01007407 C39.9771266,2.99022222 40.0385769,2.95548148 40.1000273,2.94555556 C40.1307524,2.94555556 40.1563567,2.92074074 40.1768402,2.92074074 C40.402158,2.86118519 40.6274759,2.80162963 40.8527938,2.74703704 C40.8835189,2.74703704 40.9091232,2.6577037 40.9449693,2.6577037 C41.0064196,2.63785185 41.0678699,2.55844444 41.1344411,2.55348148 C41.0678699,2.55844444 41.0064196,2.6577037 40.9449693,2.66762963 L40.9449693,2.66266667 Z M41.2419792,2.63288889 C41.211254,2.65274074 41.175408,2.67259259 41.1446828,2.68251852 C41.175408,2.66266667 41.2061331,2.62792593 41.2419792,2.618 C41.3085504,2.59814815 41.3700007,2.54851852 41.4416927,2.54851852 C41.3700007,2.54851852 41.3085504,2.62296296 41.2419792,2.63288889 L41.2419792,2.63288889 Z M43.7153548,2.55348148 C43.5924542,2.53362963 43.4746744,2.54355556 43.3568946,2.54355556 L43.3466529,2.54355556 C43.4644327,2.54355556 43.5822125,2.52866667 43.7051131,2.54355556 C43.7204757,2.54355556 43.7307174,2.53859259 43.74608,2.53859259 C43.7358383,2.54355556 43.7307174,2.55348148 43.7153548,2.55348148 L43.7153548,2.55348148 Z M44.0328482,2.39962963 C43.7358383,2.39962963 43.4439492,2.45918519 43.1418185,2.47903704 C43.1827853,2.47903704 43.2237522,2.52866667 43.2647191,2.53859259 C43.1879062,2.52866667 43.1110933,2.484 43.0342804,2.47903704 C43.0701264,2.47407407 43.1059724,2.45422222 43.1418185,2.45422222 C43.121335,2.45422222 43.121335,2.4442963 43.1008516,2.4442963 C43.0752473,2.42444444 43.0394012,2.41451852 43.0394012,2.41451852 L43.0394012,2.43933333 C42.7116662,2.45918519 42.7321496,2.46414815 42.5887655,2.47903704 L42.5682821,2.45422222 C42.5273152,2.45422222 42.49659,2.47407407 42.460744,2.47407407 C42.4044145,2.49392593 42.3378433,2.49392593 42.276393,2.49888889 C42.240547,2.49888889 42.204701,2.49888889 42.1688549,2.51874074 C42.1022838,2.53859259 42.0408334,2.54851852 41.9793831,2.55844444 C41.9742622,2.55844444 41.9691414,2.56340741 41.9640205,2.56340741 L41.9793831,2.56340741 C42.0459543,2.56340741 42.1022838,2.53362963 42.1688549,2.51874074 C42.204701,2.51874074 42.240547,2.49392593 42.276393,2.49392593 C42.3378433,2.49392593 42.3992937,2.47407407 42.460744,2.46414815 C42.4914692,2.46414815 42.5221943,2.46414815 42.5631612,2.4442963 C42.6860619,2.42940741 42.8089625,2.41948148 42.9318632,2.40955556 C42.9574675,2.40955556 42.9779509,2.41451852 43.0035552,2.41451852 C43.3517737,2.38474074 43.6897505,2.37481481 44.0328482,2.37481481 L44.0328482,2.39962963 Z M44.8573068,2.74703704 C44.626868,2.68748148 44.3913084,2.64281481 44.1557489,2.60311111 C44.1352654,2.60311111 44.114782,2.59318519 44.0942985,2.58822222 C44.1096611,2.59318519 44.1301446,2.59814815 44.150628,2.59814815 C44.3861876,2.64281481 44.6217472,2.68748148 44.8521859,2.74703704 C44.8573068,2.74703704 44.8675485,2.752 44.8726693,2.752 L44.8624276,2.752 L44.8573068,2.74703704 Z M49.8706293,6.62807407 L49.8706293,6.62807407 C49.8706293,6.62807407 49.8706293,6.63303704 49.8655084,6.63303704 C49.1434671,5.45185185 48.3497337,4.45925926 47.4689457,3.73466667 C47.4791874,3.73962963 47.49455,3.74955556 47.5047917,3.75451852 C48.3702171,4.48407407 49.148588,5.46177778 49.8655084,6.63303704 L49.8655084,6.63303704 L49.8706293,6.62807407 Z M63.8556996,2.69244444 C64.7774545,2.5237037 65.7043303,2.41451852 66.6158435,2.37481481 C65.6992094,2.41948148 64.7774545,2.5237037 63.8505788,2.69740741 L63.8556996,2.69244444 Z M54.8378641,11.1394074 C54.8327432,11.1245185 54.8225015,11.1145926 54.8173806,11.0997037 C54.8225015,11.1145926 54.8327432,11.1245185 54.8378641,11.1394074 L54.8378641,11.1394074 L54.8378641,11.1394074 Z M66.6414478,3.69992593 C65.1871234,4.226 63.7276781,4.90096296 62.2682328,5.72481481 C63.7276781,4.90096296 65.1871234,4.226 66.6414478,3.69992593 C67.6348948,3.34259259 68.6232209,3.0597037 69.611547,2.8462963 C68.6181,3.0597037 67.6297739,3.34259259 66.6414478,3.69992593 L66.6414478,3.69992593 Z M81.4663393,57.3545185 C82.06548,57.2006667 82.6697415,57.017037 83.2688822,56.8135556 L83.2688822,56.8135556 C82.6646206,57.017037 82.06548,57.1957037 81.4663393,57.3545185 L81.4663393,57.3545185 Z M96.9927886,56.3768148 L96.9927886,56.3768148 C96.9569426,56.3966667 96.9210966,56.4115556 96.8852506,56.4314074 C96.9210966,56.4115556 96.9620635,56.3917037 96.9979095,56.3718519 L96.9927886,56.3768148 Z M100.198447,57.9798519 C98.7390021,57.8111111 97.4331826,57.3942222 96.2400221,56.7688889 C97.4331826,57.3942222 98.7390021,57.8111111 100.198447,57.9798519 C100.413524,57.9997037 100.623479,58.0195556 100.843676,58.0344444 C100.623479,58.0195556 100.408403,57.9997037 100.198447,57.9798519 L100.198447,57.9798519 Z M100.09603,53.7662963 L100.101151,53.7414815 C100.101151,53.7414815 100.101151,53.7365185 100.106272,53.7365185 C100.910247,55.0616296 101.801277,56.1534815 102.804965,56.9078519 C101.801277,56.1683704 100.905126,55.1013333 100.101151,53.7662963 L100.09603,53.7662963 Z M102.379934,58.0344444 C102.338967,58.0542963 102.303121,58.0542963 102.262154,58.0542963 L102.251912,58.0542963 C102.292879,58.0542963 102.333846,58.0542963 102.369692,58.0344444 C102.446505,58.0344444 102.523318,58.0344444 102.605252,58.0145926 L102.615494,58.0145926 C102.53356,58.0344444 102.456747,58.0344444 102.379934,58.0344444 L102.379934,58.0344444 Z M103.347777,57.9302222 C103.260722,57.9451111 103.168547,57.9500741 103.076371,57.9699259 C103.050767,57.9699259 103.025162,57.9897778 102.999558,57.9897778 L102.979075,57.9897778 C102.897141,57.9997037 102.810086,58.0145926 102.728153,58.0145926 L102.717911,58.0145926 C102.799845,58.0145926 102.886899,57.9947407 102.968833,57.9897778 L102.989316,57.9897778 C103.014921,57.9897778 103.040525,57.9699259 103.066129,57.9699259 C103.158305,57.9500741 103.25048,57.9401481 103.337535,57.9302222 L103.358018,57.9302222 L103.347777,57.9302222 L103.347777,57.9302222 Z" id="Shape"></path>
            </g>
            <path d="M311.5,35.5 L311.5,409.507996" id="Line" stroke-opacity="0.3" stroke="#FFFFFF" stroke-width="11" stroke-linecap="square"></path>
        </g>
    </g>
</svg>