<?xml version="1.0" standalone="no"?>
<!DOCTYPE svg PUBLIC "-//W3C//DTD SVG 20010904//EN"
 "http://www.w3.org/TR/2001/REC-SVG-20010904/DTD/svg10.dtd">
<svg version="1.0" xmlns="http://www.w3.org/2000/svg"
 width="511.431013pt" height="488.955934pt" viewBox="0 0 511.431013 488.955934"
 preserveAspectRatio="xMidYMid meet">
<metadata>
Created by Potrace Professional 1.1m
</metadata>
<g transform="translate(-29.568987,517.956533) rotate(-360.00) scale(0.095238,-0.095238)"
fill="#000000" stroke="none">
<path d="M2875 5424 c-21 -7 -80 -40 -131 -72 -51 -32 -117 -70 -146 -84 -72
-36 -165 -116 -241 -207 -34 -42 -95 -114 -134 -160 -73 -85 -157 -208 -178
-259 -6 -15 -21 -61 -35 -103 l-23 -75 24 -53 c29 -61 91 -133 155 -175 24
-17 78 -60 118 -97 64 -57 74 -70 70 -95 -5 -37 21 -64 61 -64 28 0 55 -17
170 -108 38 -29 39 -31 23 -56 -9 -14 -14 -32 -11 -41 5 -13 -2 -16 -35 -16
-34 0 -46 -6 -65 -32 -13 -18 -24 -37 -24 -42 0 -5 -11 -17 -25 -27 -20 -14
-23 -23 -18 -52 6 -29 3 -37 -21 -54 -57 -39 -111 -92 -127 -123 -28 -53 -150
-185 -244 -263 -173 -145 -413 -401 -505 -540 -71 -108 -299 -344 -433 -450
-164 -130 -362 -309 -480 -434 -66 -70 -144 -143 -174 -162 -68 -44 -83 -62
-83 -105 0 -93 292 -420 472 -529 44 -27 70 -35 110 -36 79 -1 100 20 175 172
55 113 76 144 154 225 134 142 167 181 232 278 74 108 165 213 269 310 146
136 206 204 257 291 71 120 97 153 238 292 67 66 139 146 160 177 21 31 49 65
62 75 13 11 38 40 55 65 69 103 105 145 216 257 102 102 120 115 137 105 15
-10 29 -7 69 15 52 27 68 60 44 89 -20 23 0 18 38 -11 42 -32 53 -33 67 -6 16
30 13 58 -10 87 -30 39 -26 44 14 19 43 -26 57 -27 82 -5 17 16 21 15 58 -13
50 -38 126 -87 137 -88 23 -2 147 -105 159 -131 26 -54 44 -68 90 -68 36 0 52
-8 104 -53 70 -59 148 -115 162 -115 5 0 32 -15 60 -32 48 -31 54 -32 99 -21
168 42 163 40 278 152 59 58 122 127 140 153 18 26 87 99 155 162 81 77 138
140 169 189 25 41 72 99 103 129 64 62 105 139 115 216 5 36 20 70 49 111 53
76 55 115 9 184 -42 64 -163 171 -233 206 -49 24 -55 31 -57 65 -5 54 -49 96
-93 89 -27 -4 -52 6 -132 53 -54 32 -166 96 -250 142 -84 46 -174 96 -199 112
-26 17 -117 71 -201 120 -85 50 -207 131 -273 181 -66 49 -154 107 -197 128
-51 25 -82 48 -92 67 -8 16 -30 37 -48 47 -32 16 -34 16 -50 -6 l-17 -22 -99
48 c-113 56 -197 89 -220 89 -9 -1 -34 -7 -55 -15z m260 -97 l106 -51 8 -194
c8 -219 34 -462 73 -688 9 -52 17 -100 17 -106 0 -7 -49 -19 -123 -29 -68 -10
-154 -23 -191 -28 -36 -6 -68 -9 -70 -7 -2 1 8 41 22 87 28 88 32 120 17 120
-16 0 -74 -193 -63 -206 7 -8 -1 -16 -24 -24 -59 -20 -61 -17 -41 49 10 33 28
80 41 104 23 45 30 98 13 98 -5 0 -11 -11 -14 -24 -3 -13 -23 -63 -45 -111
-22 -50 -37 -97 -34 -112 4 -22 -2 -26 -96 -50 -155 -41 -168 -42 -161 -18 7
29 -13 26 -36 -5 -15 -20 -32 -27 -82 -32 l-63 -7 -89 75 c-167 139 -234 204
-255 248 l-22 44 28 88 c38 121 84 194 244 385 163 195 242 270 344 323 41 22
105 58 141 81 37 23 86 47 111 55 55 16 95 5 244 -65z m189 -36 c4 -7 2 -15
-5 -19 -9 -6 -8 -12 4 -22 20 -17 21 -36 1 -28 -28 11 -29 -14 -1 -26 32 -15
35 -30 6 -30 -12 0 -21 -5 -21 -11 0 -7 9 -14 21 -17 24 -7 28 -45 5 -45 -23
0 -20 -19 5 -27 24 -7 29 -47 5 -47 -8 0 -15 -5 -15 -10 0 -6 7 -11 15 -11 9
0 16 -9 16 -21 0 -12 -7 -21 -16 -21 -23 0 -19 -18 6 -24 11 -3 21 -14 21 -23
0 -11 -6 -16 -15 -13 -7 3 -20 2 -28 -3 -15 -10 -15 -9 37 -26 23 -7 20 -34
-5 -40 -29 -8 -26 -25 5 -33 29 -7 37 -36 9 -34 -28 3 -27 -21 1 -29 32 -8 36
-35 6 -39 -29 -5 -28 -23 1 -30 34 -8 37 -30 5 -38 -33 -8 -35 -22 -4 -27 30
-4 36 -25 9 -32 -28 -8 -27 -21 1 -34 29 -13 37 -34 12 -33 -25 2 -30 -19 -6
-23 19 -4 45 -30 45 -46 0 -5 -6 -9 -13 -8 -55 7 -67 -12 -17 -27 42 -13 53
-36 16 -33 -38 3 -36 -17 3 -27 42 -11 41 -27 -2 -25 -22 1 -33 -3 -32 -12 2
-7 -3 -13 -11 -13 -30 0 -89 430 -109 782 -8 160 -8 198 2 223 6 17 33 18 43
2z m122 -105 c46 -23 137 -85 242 -165 77 -58 529 -330 670 -402 69 -36 229
-131 244 -145 5 -5 -18 -12 -50 -15 -32 -4 -98 -17 -148 -28 -170 -40 -270
-55 -587 -90 -81 -9 -173 -20 -205 -25 -113 -18 -111 -19 -126 55 -7 36 -19
89 -27 118 -7 29 -16 97 -19 151 -4 54 -15 153 -26 220 -25 150 -37 348 -22
348 6 0 30 -10 54 -22z m1310 -765 c16 -29 14 -46 -5 -39 -9 4 -19 0 -22 -9
-10 -25 -38 -19 -30 6 9 29 -12 26 -33 -6 -20 -31 -40 -34 -30 -5 4 15 2 21
-9 21 -9 0 -19 -9 -23 -21 -3 -12 -14 -21 -22 -21 -11 0 -14 6 -10 20 11 34
-12 35 -32 1 -23 -37 -35 -40 -36 -8 l0 24 -19 -23 c-10 -12 -29 -25 -42 -29
-21 -7 -23 -5 -17 19 10 38 -12 35 -32 -4 -16 -32 -55 -46 -43 -16 10 27 -12
28 -34 0 -22 -28 -46 -35 -37 -10 10 25 -15 18 -34 -11 -18 -28 -52 -37 -42
-11 11 31 -15 28 -33 -4 -19 -32 -60 -47 -48 -16 10 27 -24 17 -37 -11 -6 -14
-17 -26 -23 -26 -8 0 -10 10 -6 26 9 35 -3 34 -32 -2 -12 -16 -26 -26 -30 -22
-5 5 -2 15 5 23 9 12 9 17 -1 23 -11 7 -27 -7 -49 -44 -4 -6 -18 -15 -31 -19
-22 -7 -23 -6 -13 21 20 52 -9 46 -36 -8 -6 -13 -22 -26 -35 -28 -21 -3 -23 0
-13 24 14 37 -4 34 -31 -4 -13 -18 -32 -32 -43 -32 -18 0 -19 3 -8 26 16 36 0
48 -22 16 -38 -58 -81 -84 -53 -31 20 37 0 39 -31 2 -35 -41 -59 -45 -49 -8 9
36 -10 33 -32 -5 -22 -36 -62 -45 -51 -10 9 29 -12 26 -33 -6 -21 -32 -53 -37
-36 -6 26 49 1 60 -27 12 -11 -18 -25 -32 -33 -32 -16 0 -17 17 -2 26 13 9 13
37 0 37 -6 0 -21 -16 -35 -37 -26 -40 -62 -51 -53 -15 8 28 -5 26 -34 -6 -29
-31 -57 -35 -50 -6 8 31 -16 37 -28 8 -5 -15 -19 -32 -31 -38 -20 -11 -22 -10
-15 15 9 36 -11 34 -35 -2 -32 -51 -60 -61 -49 -19 9 37 -13 34 -33 -5 -18
-36 -48 -44 -40 -10 8 29 -12 26 -32 -6 -21 -31 -53 -36 -44 -6 11 34 -12 35
-36 1 -27 -38 -45 -41 -36 -5 9 34 -13 35 -29 0 -11 -24 -38 -43 -48 -33 -2 3
1 14 7 26 8 14 8 23 1 28 -13 8 -31 -3 -31 -18 -1 -15 -32 -50 -45 -50 -5 0
-6 9 -3 21 9 28 -7 26 -36 -6 -30 -32 -53 -34 -46 -5 8 29 -12 26 -32 -5 -22
-33 -55 -38 -38 -5 17 32 -16 27 -38 -6 -18 -28 -38 -35 -33 -11 1 8 -1 15 -5
16 -24 2 -29 -1 -29 -16 0 -18 -23 -16 -29 3 -6 20 33 34 157 55 129 21 253
51 376 89 43 14 124 30 179 37 104 13 275 37 514 74 78 12 234 31 346 42 113
12 297 40 410 63 234 47 248 49 323 51 44 1 56 -2 65 -19z m-17 -111 c-26 -41
-3 -55 26 -16 15 20 29 29 39 25 15 -5 15 -8 0 -25 -12 -12 -14 -21 -6 -25 15
-10 32 2 32 21 0 28 74 -20 150 -98 124 -125 136 -160 80 -229 -41 -52 -62
-99 -62 -143 -1 -56 -37 -121 -113 -201 -40 -41 -88 -103 -108 -137 -23 -38
-77 -99 -145 -163 -60 -55 -131 -127 -156 -158 -75 -93 -204 -222 -253 -253
-27 -17 -75 -35 -117 -42 -70 -13 -71 -12 -140 21 -65 31 -136 81 -232 166
-31 27 -41 45 -47 85 -5 27 -5 57 0 65 4 8 25 55 47 105 21 49 69 147 106 218
53 102 65 133 55 142 -8 8 -14 8 -17 2 -2 -6 -50 -104 -107 -218 -82 -163
-105 -202 -110 -184 -13 49 -5 76 71 234 82 169 92 195 74 200 -6 2 -43 -65
-84 -148 -62 -131 -74 -149 -80 -126 -9 32 18 107 76 212 27 49 38 78 30 83
-14 8 -15 8 -47 -52 -84 -157 -76 -145 -82 -114 -3 16 -1 33 3 39 5 6 14 27
19 48 6 20 14 45 18 55 5 13 3 18 -9 18 -10 0 -21 -16 -29 -42 -7 -24 -16 -39
-20 -34 -4 4 -15 56 -24 115 -17 106 -17 108 5 155 26 53 18 77 -12 37 -12
-15 -21 -22 -21 -16 -3 38 -21 162 -27 181 -6 21 -3 24 27 24 32 0 33 -2 26
-29 -11 -43 -11 -49 0 -53 6 -2 18 17 27 42 13 37 21 46 45 49 l29 3 -17 -33
c-16 -30 -14 -52 5 -52 4 0 16 20 26 46 16 43 36 58 77 58 11 0 10 -5 -2 -23
-9 -13 -16 -29 -16 -37 0 -25 20 -13 48 29 16 24 36 42 48 42 18 0 18 -2 3
-26 -17 -25 -14 -47 6 -47 6 0 10 6 10 14 0 23 59 80 83 80 26 0 27 -8 6 -36
-20 -26 -20 -37 0 -37 8 0 23 15 33 34 21 41 32 49 70 49 l29 1 -23 -32 c-17
-23 -20 -35 -12 -43 8 -9 16 -4 28 16 9 15 24 38 32 52 9 15 28 27 47 30 38 5
39 1 12 -34 -24 -30 -27 -53 -8 -52 7 0 25 23 41 51 19 35 37 53 56 58 39 10
42 2 14 -35 -16 -22 -20 -36 -13 -43 7 -7 24 8 51 47 25 37 47 58 60 58 20 0
20 -1 -1 -28 -20 -25 -29 -56 -17 -56 3 0 29 24 58 54 52 54 81 65 48 18 -9
-13 -16 -30 -16 -38 0 -25 20 -13 46 28 17 26 36 42 55 46 38 7 41 3 21 -29
-19 -28 -23 -58 -8 -58 6 0 21 19 34 42 14 25 34 45 48 49 36 9 40 -2 14 -34
-15 -20 -19 -32 -11 -40 7 -8 16 -3 29 15 21 31 72 84 81 84 3 0 -2 -13 -12
-27z m-1253 -194 c0 -6 -14 -9 -32 -7 -46 5 -51 18 -6 18 21 0 38 -5 38 -11z
m-168 -9 c0 -5 -7 -15 -16 -22 -17 -15 -20 -38 -6 -47 6 -4 21 13 34 36 13 23
30 42 37 42 18 0 18 -4 -7 -44 -11 -19 -21 -41 -21 -48 0 -22 20 -14 35 15 14
27 14 27 22 -26 6 -46 4 -57 -15 -76 -23 -23 -24 -42 -2 -50 7 -2 13 5 13 15
0 39 11 3 25 -81 9 -49 20 -116 26 -151 9 -48 8 -66 -2 -78 -23 -29 -83 -178
-76 -189 12 -20 26 -12 33 17 4 16 16 48 25 71 10 23 22 52 27 63 7 18 9 14
14 -21 5 -31 0 -57 -17 -97 -13 -31 -24 -60 -24 -66 0 -22 21 -8 38 24 l18 34
11 -35 c8 -27 6 -41 -8 -65 -19 -32 -7 -53 19 -32 11 10 17 2 27 -41 7 -30 10
-56 7 -59 -3 -3 -31 13 -61 35 -31 23 -82 56 -114 75 -32 19 -100 67 -152 108
-52 40 -167 128 -255 195 -88 66 -203 161 -255 209 -53 48 -116 103 -142 121
-54 39 -58 51 -16 51 17 0 39 3 49 7 14 6 17 3 12 -10 -4 -10 -10 -25 -14 -34
-12 -29 18 -16 36 16 31 54 68 56 40 1 -18 -34 -22 -64 -9 -64 5 0 22 26 39
58 20 38 37 58 49 58 23 0 24 -14 5 -51 -8 -16 -22 -46 -32 -68 -16 -38 -16
-40 1 -37 12 2 31 33 51 82 29 69 37 79 62 82 16 2 27 0 25 -5 -48 -100 -71
-158 -71 -179 0 -22 2 -25 15 -13 9 7 16 20 16 30 0 9 18 52 40 96 30 58 46
79 64 82 23 3 23 2 7 -29 -9 -17 -16 -40 -16 -50 0 -17 2 -17 18 3 10 13 26
37 35 54 10 18 28 33 45 36 l27 6 -22 -36 c-15 -24 -19 -40 -12 -47 7 -7 20 6
39 38 27 45 72 80 86 66 3 -4 -5 -21 -18 -39 -13 -17 -21 -35 -17 -39 10 -9
45 24 72 67 15 24 29 35 47 35 l26 0 -27 -36 c-29 -38 -34 -59 -13 -59 7 0 26
24 42 53 23 40 36 52 55 52 14 0 26 -4 26 -9z m183 -42 c3 -6 -7 -9 -23 -8
-40 2 -42 -18 -3 -29 37 -11 45 -41 9 -36 -35 5 -34 -19 2 -32 36 -12 42 -33
11 -33 -12 0 -21 -7 -21 -16 0 -8 9 -15 21 -15 11 0 21 -2 21 -5 0 -2 2 -12 6
-21 4 -12 0 -16 -16 -16 -13 0 -22 -7 -22 -16 0 -10 10 -16 26 -16 21 0 27 -5
27 -25 0 -17 -6 -25 -18 -24 -27 3 -28 -22 -1 -30 45 -14 58 -62 13 -51 -38 9
-34 -20 6 -35 34 -13 44 -36 11 -27 -35 9 -37 -18 -2 -31 37 -14 43 -29 11
-29 -29 0 -21 -25 9 -30 26 -3 33 -43 8 -43 -30 0 -27 -21 4 -37 20 -10 32
-25 32 -38 0 -18 -3 -19 -21 -9 -12 6 -26 8 -32 4 -16 -9 9 -36 33 -36 13 0
20 -7 20 -21 0 -13 -5 -18 -15 -15 -27 11 -28 -16 -1 -29 30 -13 35 -35 11
-44 -23 -9 -19 -23 10 -36 32 -14 35 -44 6 -44 -30 0 -27 -19 5 -27 30 -8 38
-48 8 -44 -26 4 -29 -18 -3 -22 27 -4 28 -22 0 -22 -27 0 -48 35 -57 94 -4 26
-23 116 -43 200 -37 156 -93 492 -105 627 l-6 76 36 0 c21 0 40 -4 43 -9z
m-834 -257 c0 -3 -7 -10 -16 -17 -13 -11 -15 -10 -15 3 0 10 7 18 15 18 9 0
16 -2 16 -4z m21 -80 c-35 -27 -51 -10 -27 26 17 27 20 27 36 11 16 -16 15
-19 -9 -37z m-94 -16 c0 -9 7 -16 17 -16 10 0 14 -3 11 -7 -4 -4 2 -13 14 -22
41 -29 19 -33 -40 -7 -69 30 -81 40 -71 56 11 18 69 14 69 -4z m147 -2 c0 -4
-8 -16 -18 -26 -21 -24 -10 -39 17 -22 29 18 37 -11 10 -35 -24 -22 -10 -47
15 -27 12 10 17 10 23 0 5 -7 1 -18 -9 -25 -19 -14 -24 -36 -8 -36 6 0 13 4
17 10 9 15 26 13 26 -4 0 -8 -7 -17 -16 -21 -8 -3 -15 -13 -15 -22 0 -19 12
-21 29 -3 9 9 16 9 24 1 9 -9 6 -15 -10 -24 -31 -17 -29 -36 4 -28 19 5 26 3
26 -9 0 -9 -7 -19 -16 -23 -8 -3 -15 -12 -15 -20 0 -18 12 -19 29 -2 10 9 13
8 13 -5 0 -10 -5 -20 -11 -24 -15 -9 -1 -29 16 -22 8 3 17 2 20 -3 7 -11 -22
-36 -33 -29 -4 3 -48 83 -96 177 l-89 172 19 29 c17 25 48 39 48 21z m78 -67
c-9 -14 -26 6 -26 32 0 12 3 12 17 -2 9 -9 13 -23 9 -30z m-276 -12 c-3 -20
15 -35 24 -19 12 18 25 11 19 -10 -6 -22 12 -30 23 -11 4 6 14 11 23 11 14 0
15 -3 2 -18 -13 -16 -11 -17 15 -12 31 6 36 -1 16 -21 -10 -10 -7 -12 13 -12
22 0 23 -2 9 -17 -15 -14 -21 -13 -63 10 -25 14 -65 31 -88 38 -23 7 -51 20
-61 29 -17 15 -17 18 0 36 22 25 73 22 68 -4z m334 -7 c0 -5 -9 -17 -20 -27
-23 -21 -42 -4 -22 21 14 16 42 21 42 6z m33 -57 c-11 -11 -26 -17 -33 -13
-17 11 18 48 39 40 13 -5 12 -9 -6 -27z m51 -33 c-7 -9 -17 -16 -22 -16 -14 0
-12 25 3 39 19 19 36 -3 19 -23z m-336 -143 c50 -46 139 -106 196 -134 31 -15
55 -49 43 -61 -9 -9 -87 30 -149 75 -67 48 -227 199 -245 231 -10 18 -34 14
-34 -7 0 -6 49 -60 110 -119 98 -98 202 -173 272 -198 19 -7 19 -9 -4 -33 -22
-24 -25 -24 -49 -8 -14 9 -37 32 -50 51 -33 49 -120 114 -134 101 -7 -7 8 -25
46 -54 32 -23 64 -55 71 -69 8 -15 26 -34 39 -42 24 -16 33 -37 16 -37 -4 0
-45 33 -91 74 -52 47 -91 73 -107 73 -36 0 -30 -18 11 -36 19 -8 62 -38 95
-68 32 -29 65 -54 72 -54 7 0 2 -9 -12 -21 -31 -25 -39 -21 -138 69 -68 63
-100 80 -94 52 3 -14 136 -131 165 -144 31 -15 30 -19 -13 -60 -33 -32 -39
-34 -63 -24 -15 7 -47 32 -73 55 -30 28 -49 39 -54 31 -10 -16 55 -80 103
-102 44 -19 47 -25 24 -45 -14 -11 -26 -4 -77 45 -65 62 -102 86 -118 76 -18
-11 -11 -23 20 -36 16 -7 55 -38 86 -69 42 -43 53 -60 44 -69 -8 -9 -26 1 -67
40 -58 54 -97 75 -108 56 -4 -5 5 -16 19 -24 13 -7 49 -35 78 -62 44 -40 52
-51 40 -61 -12 -9 -22 -3 -48 30 -37 47 -107 85 -156 85 -50 0 -40 -15 20 -31
58 -15 146 -87 146 -119 0 -26 -8 -23 -54 19 -37 34 -73 48 -72 29 1 -5 22
-24 48 -43 49 -36 57 -51 31 -61 -21 -8 -59 17 -133 88 -38 36 -62 52 -67 44
-9 -14 111 -129 153 -147 26 -10 29 -16 20 -32 -20 -38 -64 -25 -125 38 -59
59 -74 68 -74 43 0 -17 120 -132 138 -132 9 0 8 -6 -4 -18 -16 -16 -22 -13
-92 53 -84 79 -120 101 -138 83 -8 -9 -2 -17 24 -30 19 -10 65 -47 101 -81 51
-50 63 -66 54 -77 -18 -22 -25 -19 -84 40 -31 31 -57 50 -59 43 -7 -19 60 -97
89 -104 19 -5 22 -9 12 -21 -20 -24 -43 -16 -81 29 -37 43 -113 104 -130 104
-19 0 -7 -29 18 -43 25 -13 142 -130 142 -141 0 -3 -13 -5 -27 -5 -20 0 -47
19 -96 69 -48 47 -72 65 -80 58 -7 -8 10 -32 56 -77 37 -37 77 -71 87 -77 18
-10 17 -11 -10 -13 -25 -2 -42 8 -83 50 -52 53 -68 63 -68 40 0 -17 106 -124
123 -124 20 0 17 -31 -4 -39 -12 -4 -27 6 -50 34 -36 45 -146 120 -176 121
-10 0 -19 -8 -19 -16 0 -9 7 -16 16 -16 29 0 125 -69 166 -119 37 -46 38 -49
16 -49 -14 0 -41 19 -69 48 -34 35 -50 46 -58 37 -8 -8 3 -25 40 -62 28 -28
58 -54 67 -56 21 -7 4 -30 -23 -30 -13 0 -50 30 -96 78 -75 78 -127 111 -146
91 -6 -6 5 -17 31 -31 22 -11 65 -48 95 -83 30 -34 70 -70 89 -79 26 -13 30
-18 18 -23 -28 -11 -75 14 -132 70 -38 37 -56 49 -62 39 -12 -20 112 -135 147
-135 32 0 34 -12 7 -36 -19 -17 -22 -17 -60 16 -46 39 -66 64 -119 139 -36 50
-63 72 -63 50 0 -21 118 -182 158 -214 53 -42 38 -62 -19 -25 -23 14 -57 45
-76 69 -38 47 -68 68 -86 57 -13 -8 94 -120 146 -153 28 -17 32 -24 23 -36 -7
-8 -18 -15 -24 -15 -7 0 -46 36 -86 79 -68 73 -99 94 -99 69 0 -5 35 -47 78
-91 58 -62 75 -86 67 -96 -13 -15 -21 -10 -119 75 -46 40 -62 49 -71 39 -10
-10 -10 -14 0 -20 22 -14 148 -123 148 -128 1 -3 -21 -29 -47 -57 -34 -37 -52
-49 -61 -42 -104 77 -101 73 -82 99 10 16 17 49 18 94 2 60 8 82 43 145 39 73
43 104 10 76 -9 -7 -33 -47 -53 -88 -32 -63 -37 -82 -31 -119 7 -48 -8 -90
-50 -142 -31 -39 -94 -50 -124 -23 -27 24 -48 7 -27 -22 22 -30 111 -27 154 4
27 20 34 21 50 10 34 -24 86 -70 86 -76 0 -3 -12 -13 -27 -23 -25 -17 -28 -17
-58 5 -36 27 -62 20 -35 -10 10 -11 27 -22 37 -26 18 -5 18 -8 3 -31 -19 -29
-33 -25 -98 28 -20 17 -43 30 -51 30 -26 0 9 -43 62 -76 44 -27 49 -34 40 -52
-10 -19 -13 -18 -49 11 -22 17 -51 43 -65 58 -14 15 -31 28 -39 28 -30 0 -11
-29 54 -84 52 -44 65 -60 56 -71 -20 -25 -56 -14 -98 28 -44 46 -57 52 -57 26
0 -21 58 -77 97 -93 28 -12 29 -13 9 -31 -27 -24 -61 -10 -128 53 -40 37 -56
46 -65 37 -9 -9 -1 -23 32 -54 25 -23 60 -50 78 -59 45 -23 45 -23 29 -41 -11
-14 -18 -12 -56 15 -24 16 -65 49 -90 73 -48 44 -64 52 -64 31 0 -15 97 -108
139 -133 16 -9 28 -22 26 -28 -9 -25 -42 -14 -89 29 -65 60 -159 127 -167 119
-12 -12 7 -36 54 -67 27 -18 73 -55 101 -82 42 -39 50 -51 40 -63 -7 -8 -20
-15 -29 -15 -28 0 -122 69 -164 120 -43 52 -58 59 -58 28 0 -24 114 -132 164
-156 40 -19 43 -26 20 -44 -23 -20 -101 22 -169 90 -56 56 -78 68 -78 44 0
-22 120 -129 169 -150 25 -11 48 -21 50 -22 3 -2 -17 -45 -25 -55 -10 -11
-101 52 -168 115 -62 59 -80 71 -85 57 -8 -21 88 -114 177 -170 62 -39 75 -57
42 -56 -37 0 -104 41 -179 108 -75 68 -101 84 -95 56 7 -26 150 -144 210 -173
49 -24 58 -32 50 -46 -8 -14 -16 -16 -49 -7 -48 14 -100 51 -188 135 -61 59
-87 75 -88 55 0 -16 26 -42 114 -117 90 -77 135 -106 164 -106 19 0 21 -9 7
-30 -7 -12 -19 -10 -65 11 -67 31 -185 118 -231 171 -25 28 -37 35 -45 26 -18
-18 132 -155 226 -206 64 -35 53 -57 -14 -27 -129 58 -316 232 -460 431 -67
93 -64 112 33 174 35 23 102 85 153 142 118 132 325 321 465 427 38 28 149
131 247 230 135 134 192 200 230 263 28 46 78 112 112 147 34 34 91 95 127
135 90 99 142 150 209 206 80 67 260 252 278 285 22 42 68 89 120 123 l47 30
58 -55 c32 -31 79 -76 105 -100z m-69 137 c15 -5 27 -15 27 -21 0 -18 -27 -12
-47 11 -22 23 -18 25 20 10z m460 -6 c10 -10 -4 -36 -19 -36 -8 0 -15 6 -15
14 0 23 20 36 34 22z m-288 -41 c-3 -3 -14 -3 -24 1 -14 5 -15 9 -4 16 14 8
39 -7 28 -17z m-107 -1 c-4 -9 -6 -19 -6 -22 0 -2 -5 -2 -11 1 -12 8 -2 38 13
38 6 0 7 -8 4 -17z m283 -5 c4 -7 2 -16 -3 -22 -7 -7 -13 -3 -16 11 -6 23 7
30 19 11z m167 -10 c0 -23 -30 -19 -35 4 -2 14 2 18 16 15 11 -2 19 -11 19
-19z m-400 -26 c-7 -30 -2 -32 27 -14 26 16 40 4 21 -18 -9 -11 -10 -20 -2
-27 7 -8 15 -4 26 11 14 20 17 20 29 6 11 -13 11 -20 2 -29 -18 -18 -15 -29 8
-29 11 0 26 -9 32 -21 15 -28 6 -27 -52 7 -72 41 -139 109 -125 126 20 25 42
17 34 -12z m279 -3 c0 -4 -9 -20 -20 -34 -16 -20 -21 -22 -21 -9 -1 29 11 51
27 51 8 0 14 -4 14 -8z m172 -8 c1 -5 -7 -12 -17 -14 -11 -2 -18 3 -18 14 0
19 31 19 35 0z m-82 -15 c10 -12 16 -21 14 -21 -3 0 -14 9 -25 21 -10 11 -16
21 -14 21 3 0 14 -10 25 -21z m-44 -8 c8 -7 -23 -45 -37 -45 -13 0 -10 25 4
40 14 14 23 16 33 5z m165 4 c0 -3 -8 -10 -16 -18 -14 -11 -15 -10 -10 4 6 15
26 25 26 14z m31 -28 c0 -6 -5 -10 -11 -10 -6 0 -8 4 -5 10 4 6 9 11 11 11 3
0 5 -5 5 -11z m-153 -19 c3 -5 -1 -18 -9 -29 -12 -16 -18 -17 -28 -8 -7 7 -9
20 -6 29 7 18 34 22 43 8z m38 -49 c0 -17 -15 -29 -25 -20 -8 8 4 36 15 36 5
0 10 -7 10 -16z m-163 -43 c-4 -18 -2 -25 9 -25 20 0 33 -41 18 -56 -15 -15
-26 -3 -51 56 l-20 47 25 1 c22 2 25 -2 19 -23z m79 -42 c0 -8 -5 -15 -11 -15
-6 0 -10 10 -10 22 0 12 4 18 10 15 6 -4 11 -14 11 -22z"/>
<path d="M2883 5325 c-16 -17 -24 -33 -19 -37 12 -7 52 20 66 47 17 32 -12 25
-47 -10z"/>
<path d="M2946 5320 c-22 -18 -27 -27 -17 -33 12 -8 64 31 64 49 0 14 -15 10
-47 -16z"/>
<path d="M3032 5315 c-31 -19 -38 -33 -16 -33 18 0 61 30 61 42 0 13 -11 11
-45 -9z"/>
<path d="M3071 5281 c-4 -6 -4 -14 -1 -17 8 -9 38 5 38 17 0 14 -28 14 -37 0z"/>
<path d="M3136 5243 c-12 -12 -8 -24 7 -24 8 0 21 7 28 15 11 13 10 16 -7 16
-12 0 -24 -3 -28 -7z"/>
<path d="M2726 5092 c-7 -44 0 -71 15 -56 4 5 10 28 12 50 5 56 -18 61 -27 6z"/>
<path d="M2773 5060 c-14 -52 -10 -75 9 -56 13 14 26 110 14 110 -5 0 -16 -24
-23 -54z"/>
<path d="M2842 5086 c-9 -16 -28 -132 -22 -142 14 -22 23 -5 33 62 10 63 4
104 -11 80z"/>
<path d="M2900 4985 c-10 -40 -5 -71 12 -71 7 0 13 21 14 53 2 59 -12 69 -26
18z"/>
<path d="M2965 4982 c-8 -31 2 -61 17 -52 14 8 14 79 0 79 -5 0 -13 -12 -17
-27z"/>
<path d="M3031 4991 c-11 -11 -8 -66 4 -66 5 0 10 16 10 36 0 38 -2 42 -14 30z"/>
<path d="M3102 4963 c-9 -24 3 -35 19 -19 9 9 9 15 0 24 -9 10 -14 8 -19 -5z"/>
<path d="M2407 4596 c-23 -47 -34 -95 -25 -105 13 -12 21 2 37 66 15 56 7 79
-12 39z"/>
<path d="M2335 4591 c-3 -10 -10 -28 -15 -41 -8 -22 -4 -35 12 -35 8 0 31 58
31 80 0 21 -21 18 -28 -4z"/>
<path d="M2454 4533 c-9 -36 -14 -69 -11 -74 11 -18 33 17 40 63 4 26 10 55
13 63 3 8 -1 14 -10 14 -10 0 -21 -22 -32 -66z"/>
<path d="M2531 4494 c-23 -68 -24 -101 -1 -78 14 14 52 134 46 143 -11 19 -21
5 -45 -65z"/>
<path d="M2651 4524 c-47 -128 -57 -182 -34 -175 16 6 62 174 49 182 -5 4 -12
0 -15 -7z"/>
<path d="M2725 4491 c-53 -149 -69 -202 -64 -215 8 -21 17 -11 35 37 18 49 55
173 55 184 0 13 -21 8 -26 -6z"/>
<path d="M2809 4449 c-11 -30 -35 -91 -54 -135 -36 -83 -44 -119 -24 -112 13
4 115 255 115 283 0 36 -17 20 -37 -36z"/>
<path d="M2084 4441 c-10 -20 -13 -37 -8 -43 6 -5 17 6 27 27 22 46 4 61 -19
16z"/>
<path d="M2123 4413 c-34 -53 -13 -70 23 -17 31 45 34 56 14 56 -7 -1 -24 -18
-37 -39z"/>
<path d="M2187 4383 c-37 -50 -42 -68 -21 -67 12 0 58 60 73 97 14 35 -18 17
-52 -30z"/>
<path d="M2269 4347 c-24 -41 -41 -78 -38 -84 11 -18 25 -2 58 63 17 34 36 65
42 68 12 7 4 27 -10 27 -5 0 -28 -34 -52 -74z"/>
<path d="M3035 4335 c-16 -52 -20 -78 -12 -86 12 -12 13 -10 38 72 18 60 20
89 6 89 -5 0 -20 -34 -32 -75z"/>
<path d="M3116 4338 c-21 -59 -23 -75 -8 -75 13 0 42 69 42 101 0 40 -15 29
-34 -26z"/>
<path d="M2344 4344 c-12 -15 -55 -98 -55 -107 0 -3 6 -5 14 -5 12 0 70 97 70
118 0 12 -17 9 -29 -6z"/>
<path d="M3188 4341 c-11 -29 -7 -57 8 -57 9 0 16 14 19 37 4 38 -15 52 -27
20z"/>
<path d="M3253 4329 c-6 -22 0 -45 12 -45 15 0 20 41 6 52 -10 9 -15 7 -18 -7z"/>
<path d="M2405 4303 c-6 -18 -23 -48 -37 -67 -16 -21 -22 -37 -16 -41 17 -11
30 3 63 68 36 72 37 74 17 74 -8 0 -20 -15 -27 -34z"/>
<path d="M2432 4219 c-25 -42 -27 -61 -6 -61 10 0 52 76 52 94 0 24 -21 9 -46
-33z"/>
<path d="M2498 4197 c-7 -13 -19 -27 -27 -32 -19 -11 -18 -38 2 -38 16 0 57
58 57 81 1 21 -19 15 -32 -11z"/>
<path d="M3807 4860 c-20 -16 -25 -25 -17 -33 7 -8 19 -4 37 13 46 43 29 59
-20 20z"/>
<path d="M3867 4830 c-36 -17 -41 -39 -7 -33 24 4 62 39 50 45 -5 3 -24 -3
-43 -12z"/>
<path d="M3911 4777 c-4 -6 -4 -14 -1 -17 8 -9 38 5 38 17 0 14 -28 14 -37 0z"/>
<path d="M3992 4751 c-12 -9 -23 -21 -23 -27 0 -16 27 -11 46 10 31 34 17 45
-23 17z"/>
<path d="M4045 4718 c-7 -3 -13 -10 -13 -15 0 -15 38 -11 53 6 10 13 9 16 -7
15 -11 0 -26 -3 -33 -6z"/>
<path d="M4106 4673 c-9 -5 -13 -13 -9 -17 9 -9 51 5 51 17 0 13 -22 13 -42 0z"/>
<path d="M4179 4646 c-8 -9 -11 -19 -8 -22 10 -9 51 17 44 28 -8 14 -21 12
-36 -6z"/>
<path d="M3587 4635 c-10 -25 -8 -67 3 -67 5 0 14 18 20 42 8 32 7 42 -3 42
-8 0 -17 -8 -20 -17z"/>
<path d="M3634 4577 c-10 -38 -11 -57 -3 -65 13 -12 12 -14 32 62 15 54 15 57
-2 57 -8 0 -20 -24 -27 -54z"/>
<path d="M3691 4599 c-22 -41 -33 -126 -18 -126 7 0 15 13 19 29 10 47 22 91
30 110 13 32 -14 21 -31 -13z"/>
<path d="M4249 4603 c-8 -9 1 -25 15 -25 5 0 10 7 10 16 0 16 -13 21 -25 9z"/>
<path d="M3749 4530 c-25 -67 -25 -67 -10 -67 11 0 34 48 47 97 13 52 -14 30
-37 -30z"/>
<path d="M3813 4533 c-16 -39 -15 -49 3 -49 20 0 28 26 17 55 -9 23 -9 23 -20
-6z"/>
<path d="M3864 4505 c0 -12 7 -21 16 -21 9 0 16 9 16 21 0 11 -7 21 -16 21 -9
0 -16 -10 -16 -21z"/>
<path d="M4910 4161 c-14 -54 -16 -76 -7 -81 13 -9 20 4 28 55 4 29 3 44 -4
44 -7 0 -14 -8 -17 -18z"/>
<path d="M4946 4112 c-15 -40 -17 -62 -5 -66 9 -3 36 59 36 84 0 18 -23 4 -31
-18z"/>
<path d="M4077 4077 c-3 -10 -12 -35 -20 -54 -18 -44 -18 -43 0 -43 15 0 31
33 43 86 7 32 -12 41 -23 11z"/>
<path d="M4984 4088 c-11 -11 -8 -87 2 -87 13 0 23 26 23 63 0 30 -10 39 -25
24z"/>
<path d="M4138 4033 c-26 -60 -27 -74 -8 -74 12 0 49 83 49 112 0 29 -20 11
-41 -38z"/>
<path d="M4215 4004 c-36 -82 -42 -108 -24 -108 8 0 24 28 37 65 13 36 26 74
30 84 4 11 2 19 -5 19 -6 0 -23 -27 -38 -60z"/>
<path d="M4308 4035 c-3 -10 -19 -51 -35 -89 -29 -70 -26 -106 5 -58 16 24 59
138 59 156 0 17 -22 9 -29 -9z"/>
<path d="M4382 3961 c-47 -98 -58 -140 -38 -147 7 -2 17 15 24 41 7 25 26 70
43 100 29 50 40 99 23 97 -5 0 -28 -41 -52 -91z"/>
<path d="M5036 4030 c-3 -13 -1 -28 4 -34 13 -12 16 -8 25 28 9 36 -19 41 -29
6z"/>
<path d="M4507 3986 c-45 -76 -98 -209 -87 -220 13 -13 32 1 32 24 0 26 40
122 76 180 16 27 29 54 29 61 0 25 -17 9 -50 -45z"/>
<path d="M4606 4036 c-4 -4 -7 -16 -7 -27 0 -11 -24 -66 -52 -124 -56 -110
-63 -136 -37 -136 8 0 16 5 16 12 0 7 21 58 47 113 48 104 68 169 50 169 -5 0
-13 -4 -17 -7z"/>
<path d="M4652 3914 c-19 -48 -46 -109 -59 -136 -28 -55 -32 -82 -12 -82 7 0
21 20 30 45 10 24 32 82 51 128 40 100 48 132 34 132 -5 0 -25 -39 -44 -87z"/>
<path d="M3630 3944 c-31 -46 -51 -104 -40 -115 7 -7 22 14 43 60 17 40 32 73
32 76 0 13 -21 1 -35 -21z"/>
<path d="M4746 3924 c-30 -65 -105 -242 -108 -254 -1 -6 5 -11 13 -11 10 0 30
38 55 105 22 58 50 124 61 147 24 48 26 58 10 58 -5 0 -20 -20 -31 -45z"/>
<path d="M4792 3834 c-77 -162 -84 -180 -64 -180 14 0 144 273 144 302 0 33
-21 2 -80 -122z"/>
<path d="M3674 3911 c-12 -26 -18 -52 -15 -58 11 -16 25 -2 35 35 6 19 14 42
18 52 4 11 3 19 -5 19 -7 0 -22 -22 -33 -48z"/>
<path d="M4899 3888 c-51 -105 -79 -186 -69 -196 5 -6 12 -8 14 -6 7 8 82 193
88 217 9 38 -12 28 -33 -15z"/>
<path d="M3744 3886 c-19 -36 -21 -53 -6 -53 5 0 20 18 32 42 17 34 18 42 5
42 -8 0 -23 -14 -31 -31z"/>
<path d="M3817 3862 c-18 -27 -21 -50 -6 -50 15 0 44 60 33 67 -6 4 -17 -4
-27 -17z"/>
<path d="M3920 3856 c-4 -10 -13 -34 -21 -54 -17 -44 -17 -43 2 -43 17 0 29
24 41 81 8 37 -10 50 -22 16z"/>
<path d="M3971 3814 c-21 -47 -21 -65 -2 -65 8 0 42 86 42 106 0 25 -21 3 -40
-41z"/>
<path d="M4042 3809 c-24 -53 -25 -71 -6 -71 7 0 19 19 27 43 7 24 15 50 18
58 3 8 0 15 -6 15 -7 0 -22 -21 -33 -45z"/>
<path d="M4127 3830 c-4 -13 -16 -42 -26 -64 -19 -48 -21 -59 -6 -59 12 0 44
68 56 118 9 35 -10 39 -24 5z"/>
<path d="M4944 3809 c-37 -58 -43 -92 -18 -92 8 0 51 89 51 106 0 18 -19 10
-33 -14z"/>
<path d="M4197 3815 c-4 -4 -7 -15 -7 -24 0 -10 -17 -57 -37 -106 -40 -97 -44
-115 -24 -115 13 0 78 164 89 223 5 27 -6 38 -21 22z"/>
<path d="M4269 3767 c-3 -7 -24 -73 -47 -146 -47 -145 -51 -166 -27 -166 8 0
16 8 16 18 0 10 18 77 42 148 23 72 42 136 42 144 0 19 -21 20 -26 2z"/>
<path d="M4333 3710 c-4 -4 -7 -16 -7 -26 0 -11 -19 -67 -43 -126 -45 -112
-63 -187 -43 -187 6 0 19 27 29 60 9 33 33 101 53 152 19 50 36 101 36 113 0
21 -12 27 -25 14z"/>
<path d="M3960 3693 c-12 -15 -30 -58 -131 -307 -111 -272 -113 -278 -91 -278
14 0 24 23 58 126 27 82 144 357 179 422 24 44 14 71 -15 37z"/>
<path d="M4386 3637 c-4 -4 -7 -18 -7 -31 0 -13 -20 -83 -44 -155 -24 -73 -40
-140 -37 -148 9 -23 28 -20 28 3 0 11 19 81 42 155 23 74 42 145 42 159 0 23
-11 30 -24 17z"/>
<path d="M4462 3554 c-5 -15 -16 -56 -25 -92 -8 -36 -30 -93 -47 -127 -33 -63
-44 -127 -19 -119 7 2 14 15 16 29 2 14 17 54 34 89 26 54 73 207 73 238 0 19
-22 7 -32 -18z"/>
<path d="M3961 3494 c-18 -42 -56 -140 -86 -218 -29 -78 -58 -153 -64 -167
-17 -40 6 -52 26 -13 9 17 17 39 17 47 0 19 132 352 152 382 19 29 20 45 1 45
-8 0 -28 -34 -46 -76z"/>
<path d="M4498 3452 c-15 -48 -39 -108 -53 -133 -25 -48 -32 -85 -14 -85 17 0
116 241 116 284 0 45 -21 16 -49 -66z"/>
<path d="M4057 3489 c-7 -22 -25 -66 -115 -286 -71 -172 -76 -189 -54 -189 8
0 26 36 41 81 15 45 56 147 92 228 35 80 64 154 64 165 0 24 -20 25 -28 1z"/>
<path d="M4554 3425 c-31 -77 -34 -96 -18 -96 14 0 52 86 60 133 10 57 -11 39
-42 -37z"/>
<path d="M4619 3448 c-11 -30 1 -54 21 -41 15 9 15 69 1 69 -6 0 -16 -13 -22
-28z"/>
<path d="M4068 3310 c-10 -27 -44 -106 -75 -174 -30 -68 -55 -130 -55 -139 0
-21 20 -19 28 3 3 10 33 80 67 155 34 76 65 152 68 171 11 52 -12 41 -33 -16z"/>
<path d="M4123 3227 c-4 -4 -7 -13 -7 -21 0 -8 -24 -67 -53 -131 -37 -80 -50
-120 -43 -127 8 -8 14 -3 22 14 5 14 32 76 58 137 26 61 48 117 48 123 0 13
-14 16 -25 5z"/>
<path d="M4154 3090 c-58 -115 -71 -148 -59 -155 10 -6 116 196 116 222 0 30
-18 10 -57 -67z"/>
<path d="M4228 3083 c-29 -48 -36 -80 -18 -80 17 0 63 99 54 114 -6 10 -17 -1
-36 -34z"/>
<path d="M4290 3086 c-9 -14 -16 -31 -16 -38 0 -24 27 -14 40 14 17 38 -1 56
-24 24z"/>
<path d="M3271 3959 c-18 -36 -20 -53 -6 -53 9 0 43 64 43 80 0 16 -24 -2 -37
-27z"/>
<path d="M3320 3932 c-16 -34 -16 -36 1 -36 7 0 19 14 25 31 16 41 -8 45 -26
5z"/>
<path d="M2870 3888 c-4 -10 -15 -41 -26 -68 -13 -33 -15 -52 -8 -57 6 -3 15
-2 20 3 8 8 42 114 42 131 0 17 -22 9 -28 -9z"/>
<path d="M2921 3789 c-25 -64 -24 -89 2 -61 27 29 50 126 30 125 -4 0 -19 -28
-32 -64z"/>
<path d="M3025 3824 c-15 -28 -45 -151 -38 -157 12 -12 28 17 42 77 8 34 18
71 22 81 9 24 -13 24 -26 -1z"/>
<path d="M3083 3744 c-30 -97 -34 -125 -15 -119 13 4 60 152 61 189 0 44 -21
12 -46 -70z"/>
<path d="M3196 3793 c-3 -10 -24 -57 -47 -105 -41 -87 -51 -123 -30 -116 12 4
103 203 104 226 1 20 -20 16 -27 -5z"/>
<path d="M3276 3791 c-19 -35 -94 -235 -94 -249 0 -8 4 -14 10 -14 6 0 11 1
11 3 0 1 25 65 56 141 38 95 52 140 42 140 -8 0 -19 -10 -25 -21z"/>
<path d="M3346 3751 c-27 -43 -108 -256 -100 -261 16 -10 24 4 61 101 19 49
43 107 54 129 17 32 18 39 5 39 -8 0 -18 -4 -20 -8z"/>
<path d="M3358 3615 c-42 -90 -66 -159 -57 -168 11 -11 28 11 42 58 8 28 29
79 47 114 29 57 32 77 13 77 -3 0 -24 -37 -45 -81z"/>
<path d="M2211 3197 c-47 -45 -64 -68 -51 -68 18 0 140 112 140 128 0 19 -22
5 -89 -60z"/>
<path d="M2263 3150 c-41 -41 -60 -52 -86 -52 -44 -1 -66 -10 -66 -28 0 -11 6
-12 26 -4 15 6 41 11 57 11 21 0 45 14 83 51 49 46 67 75 46 74 -4 0 -31 -24
-60 -52z"/>
<path d="M2266 3055 c-51 -56 -100 -123 -119 -159 -17 -35 -53 -87 -81 -116
-27 -29 -50 -56 -50 -60 0 -4 -9 -12 -20 -17 -41 -20 -109 -90 -97 -101 11
-12 51 21 161 133 67 68 105 120 120 165 5 16 51 73 101 128 86 93 106 122 82
122 -5 0 -48 -43 -97 -95z"/>
<path d="M2468 3110 c0 -12 106 -113 135 -128 17 -9 27 -9 36 -1 8 8 7 12 -2
12 -8 0 -43 28 -79 63 -61 57 -90 75 -90 54z"/>
<path d="M2030 3077 c-30 -13 -75 -74 -83 -114 -10 -46 16 -82 69 -96 23 -7
42 -15 42 -20 0 -14 -88 -93 -111 -100 -25 -8 -74 -56 -66 -64 3 -3 35 12 71
33 65 39 148 120 148 145 0 22 -26 37 -50 30 -34 -9 -76 22 -76 56 0 38 41 95
76 108 16 5 29 15 29 21 0 13 -17 13 -49 1z"/>
<path d="M2039 3027 c-48 -42 -32 -97 29 -97 33 0 85 35 85 58 0 21 -15 19
-37 -6 -20 -21 -63 -28 -73 -12 -3 5 4 21 15 36 33 42 21 55 -19 21z"/>
<path d="M1943 2835 c0 -5 -28 -28 -61 -51 -59 -40 -118 -111 -118 -142 0 -9
-5 -19 -10 -22 -16 -10 -13 -26 5 -26 9 0 26 23 41 56 15 35 41 69 69 91 24
20 62 51 83 70 34 31 36 34 14 34 -13 0 -23 -4 -23 -10z"/>
<path d="M1537 2516 c-7 -18 12 -48 29 -48 11 0 2 41 -13 56 -5 6 -12 3 -16
-8z"/>
<path d="M1495 2474 c-7 -18 3 -38 18 -38 13 0 12 39 -1 47 -6 4 -13 0 -17 -9z"/>
<path d="M1456 2418 c-4 -3 -4 -10 -1 -15 8 -12 36 -12 36 0 0 12 -27 23 -35
15z"/>
<path d="M1409 2361 c7 -20 30 -23 30 -5 0 10 -8 17 -17 17 -9 0 -15 -6 -13
-12z"/>
<path d="M1360 2311 c-8 -13 11 -43 27 -43 14 0 12 14 -5 36 -10 14 -16 16
-22 7z"/>
<path d="M1308 2259 c-7 -12 22 -51 31 -42 9 9 -4 51 -16 51 -5 0 -12 -4 -15
-9z"/>
<path d="M1271 2216 c0 -12 7 -21 15 -21 18 0 19 1 10 25 -9 23 -25 21 -25 -4z"/>
<path d="M1522 2214 c-27 -53 -67 -83 -137 -104 -102 -30 -169 -103 -179 -194
-5 -53 14 -45 34 15 25 79 81 133 162 155 35 9 76 29 93 44 39 37 64 85 50 98
-7 7 -14 2 -23 -14z"/>
<path d="M1223 2184 c-8 -13 15 -44 27 -37 10 7 0 48 -12 48 -4 0 -11 -5 -15
-11z"/>
<path d="M1166 2136 c0 -17 23 -46 36 -46 13 0 13 4 4 26 -11 22 -40 37 -40
20z"/>
<path d="M1104 2087 c2 -13 12 -25 22 -27 17 -3 17 0 6 23 -15 34 -32 36 -28
4z"/>
<path d="M1061 2058 c0 -21 26 -40 38 -28 7 7 -16 49 -28 49 -6 0 -10 -10 -10
-21z"/>
<path d="M1342 2013 c-43 -39 -85 -117 -115 -214 -11 -38 -37 -91 -57 -119
-24 -33 -33 -53 -25 -58 13 -8 10 -11 50 40 18 22 45 79 61 126 39 120 58 155
116 211 42 39 47 48 29 48 -12 0 -38 -15 -59 -34z"/>
<path d="M1365 1951 c-24 -54 -14 -71 42 -71 42 0 55 10 72 55 15 37 -8 60
-58 60 -32 0 -38 -5 -56 -44z m90 12 c10 -17 -25 -62 -48 -62 -25 0 -27 18 -5
50 18 24 41 30 53 12z"/>
<path d="M1575 1954 c0 -15 82 -85 100 -85 23 0 20 6 -29 52 -43 40 -71 53
-71 33z"/>
<path d="M873 1887 c2 -12 12 -25 22 -27 17 -3 17 0 6 24 -15 33 -32 35 -28 3z"/>
<path d="M824 1857 c-8 -11 22 -49 31 -39 8 7 -6 51 -16 51 -4 0 -11 -5 -15
-12z"/>
<path d="M913 1807 c-35 -37 -60 -53 -99 -64 -50 -13 -152 -76 -152 -94 0 -22
17 -17 60 16 26 20 71 43 100 52 62 18 110 53 136 98 30 50 7 46 -45 -8z"/>
<path d="M779 1803 c2 -12 11 -24 20 -26 13 -3 16 3 12 23 -6 34 -37 37 -32 3z"/>
<path d="M1471 1806 c-17 -15 -40 -21 -78 -21 -30 -1 -63 -7 -74 -16 -11 -8
-34 -48 -50 -89 -34 -85 -35 -87 -17 -82 7 3 29 37 50 77 l37 73 72 11 c50 7
76 16 86 31 29 40 15 49 -26 16z"/>
<path d="M737 1772 c19 -27 40 -36 40 -16 0 19 -21 40 -40 40 -13 0 -13 -4 0
-24z"/>
<path d="M892 1685 c-5 -15 -10 -41 -10 -57 0 -17 -10 -49 -23 -73 -18 -33
-36 -49 -80 -69 -31 -15 -69 -27 -85 -27 -34 0 -55 -16 -84 -63 -26 -42 -27
-52 -8 -52 8 0 25 18 39 39 17 25 35 41 52 43 14 2 58 18 96 35 60 27 74 39
96 81 14 27 26 67 27 90 1 23 6 46 12 52 15 15 13 28 -6 28 -8 0 -20 -13 -26
-27z"/>
<path d="M790 1690 c-37 -15 -29 -34 10 -25 l33 7 -7 -54 c-5 -41 -3 -53 8
-53 32 0 38 92 8 119 -22 19 -20 19 -52 6z"/>
<path d="M751 1629 c-40 -9 -61 -56 -35 -81 23 -23 58 -11 82 30 15 24 17 36
9 46 -6 8 -15 13 -18 13 -4 -1 -21 -4 -38 -8z m26 -22 c0 -21 -14 -42 -27 -42
-18 0 -19 22 -2 39 15 15 29 17 29 3z"/>
<path d="M667 1604 c-20 -28 -21 -101 -2 -108 26 -11 69 -10 70 0 1 6 -10 13
-23 17 -20 4 -24 12 -23 42 0 19 4 44 9 54 11 27 -11 23 -31 -5z"/>
<path d="M588 1544 c-6 -11 -10 -30 -10 -42 0 -26 -46 -101 -66 -108 -9 -4
-10 -9 -2 -17 28 -30 86 53 103 148 8 43 -6 54 -25 19z"/>
<path d="M501 1537 c-13 -13 -8 -33 8 -39 8 -3 18 -2 21 2 7 12 -20 46 -29 37z"/>
<path d="M452 1504 c0 -16 29 -50 36 -43 12 12 -5 51 -21 51 -9 0 -15 -4 -15
-8z"/>
<path d="M427 1484 c-9 -9 22 -66 36 -66 7 0 9 7 4 18 -4 10 -10 27 -13 37 -5
19 -15 23 -27 11z"/>
<path d="M4011 582 c-193 -155 -249 -211 -232 -229 10 -9 21 -1 50 33 20 25
110 102 199 172 139 110 186 158 154 155 -5 0 -81 -59 -171 -131z"/>
<path d="M4925 645 c-111 -83 -324 -276 -332 -302 -14 -42 9 -26 113 77 60 59
139 129 177 155 107 76 157 120 151 130 -9 14 -14 11 -109 -60z"/>
<path d="M4788 671 c-20 -18 -93 -78 -163 -133 -177 -143 -236 -195 -236 -210
0 -24 22 -13 77 38 30 27 126 108 214 179 88 71 161 136 161 144 0 21 -12 17
-53 -18z"/>
<path d="M3748 644 c-26 -26 -101 -92 -168 -145 -140 -113 -155 -128 -138
-144 8 -8 21 -1 46 25 19 20 73 67 119 104 96 76 215 187 215 200 0 22 -31 5
-74 -40z"/>
<path d="M3932 650 c-17 -17 -103 -89 -191 -160 -88 -70 -160 -131 -160 -135
0 -16 39 -9 53 9 8 10 60 53 115 97 128 101 241 201 241 213 0 19 -29 7 -58
-24z"/>
<path d="M4310 672 c-3 -6 -85 -74 -181 -151 -196 -156 -233 -189 -233 -205 0
-22 27 -11 58 21 29 31 216 185 325 267 57 43 69 57 61 70 -7 12 -22 11 -30
-2z"/>
<path d="M5076 640 c-74 -68 -231 -197 -301 -249 -58 -44 -77 -76 -45 -76 9 0
16 4 16 10 0 5 25 27 55 49 69 51 290 235 316 265 11 12 18 27 15 35 -3 8 -23
-4 -56 -34z"/>
<path d="M5270 665 c-8 -9 -50 -45 -93 -78 -229 -179 -287 -231 -275 -243 7
-7 46 19 117 77 58 49 128 106 155 128 28 22 67 54 89 71 22 18 40 39 40 47 0
20 -16 20 -33 -2z"/>
<path d="M3437 623 c-28 -21 -81 -63 -119 -92 -38 -30 -88 -67 -111 -83 -58
-38 -93 -76 -79 -85 6 -4 36 13 66 36 31 24 108 84 171 133 64 50 122 92 129
95 15 6 18 35 3 35 -5 0 -32 -18 -60 -39z"/>
<path d="M4394 592 c-180 -146 -320 -268 -320 -277 0 -24 29 -4 181 122 88 72
180 148 205 168 44 36 56 57 31 56 -7 -1 -51 -32 -97 -69z"/>
<path d="M4552 592 c-46 -37 -133 -106 -192 -152 -59 -47 -107 -91 -107 -100
0 -8 2 -14 5 -14 5 0 201 153 365 284 39 32 50 52 26 51 -7 -1 -51 -32 -97
-69z"/>
<path d="M3612 642 c0 -5 -37 -37 -81 -70 -128 -95 -223 -184 -223 -206 0 -31
11 -24 79 44 34 35 98 90 141 123 104 78 138 118 100 118 -9 0 -16 -4 -16 -9z"/>
<path d="M2992 612 c-14 -10 -74 -57 -134 -106 -71 -58 -105 -92 -98 -99 7 -7
30 5 66 35 166 136 219 181 219 184 0 10 -29 2 -53 -14z"/>
<path d="M3065 569 c-124 -93 -188 -150 -188 -166 0 -22 7 -19 77 41 36 30 97
78 136 107 39 28 71 55 71 59 0 23 -24 13 -96 -41z"/>
<path d="M3182 551 c-159 -126 -189 -153 -189 -168 0 -22 10 -19 42 11 15 14
53 46 86 71 122 93 176 139 176 152 0 23 -13 15 -115 -66z"/>
<path d="M5313 560 c-43 -37 -118 -96 -165 -132 -81 -60 -106 -92 -73 -92 7 0
24 10 37 22 12 11 69 58 125 103 114 92 177 154 164 161 -5 3 -45 -25 -88 -62z"/>
<path d="M2741 524 c-106 -82 -126 -100 -126 -117 -1 -15 30 -8 44 11 7 10 30
30 50 44 64 45 166 135 160 141 -10 10 -16 7 -128 -79z"/>
<path d="M1753 581 c-91 -62 -204 -182 -172 -182 4 0 45 36 91 79 46 44 98 86
114 95 17 9 31 18 31 21 0 11 -40 3 -64 -13z"/>
<path d="M1895 586 c-46 -27 -173 -137 -173 -151 0 -8 3 -15 6 -15 6 0 91 71
172 144 37 34 35 45 -5 22z"/>
<path d="M2229 570 c-76 -52 -164 -136 -156 -149 7 -12 21 -1 173 132 49 43
38 54 -17 17z"/>
<path d="M2683 570 c-42 -22 -205 -151 -205 -162 0 -24 27 -17 66 19 24 22 74
64 110 92 36 28 66 55 66 60 0 11 0 11 -37 -9z"/>
<path d="M5412 522 c-41 -36 -98 -86 -128 -111 -30 -25 -55 -52 -55 -61 0 -9
5 -14 10 -12 17 6 274 232 274 242 0 22 -34 2 -101 -58z"/>
<path d="M399 534 c-84 -61 -97 -74 -85 -86 11 -11 159 101 159 119 0 17 -14
11 -74 -33z"/>
<path d="M1022 529 c-109 -74 -150 -109 -150 -127 0 -8 3 -14 7 -12 18 8 210
155 223 171 25 30 -7 18 -80 -32z"/>
<path d="M1323 560 c-15 -10 -45 -35 -68 -55 -23 -21 -54 -46 -68 -55 -20 -13
-24 -21 -15 -30 9 -9 26 0 68 36 31 27 77 61 101 77 24 16 44 32 45 37 0 14
-37 8 -63 -10z"/>
<path d="M1924 508 c-81 -64 -102 -88 -75 -88 13 0 187 138 188 150 1 20 -33
1 -113 -62z"/>
<path d="M2358 546 c-103 -66 -166 -117 -155 -128 11 -11 223 132 223 150 0
16 -15 11 -68 -22z"/>
<path d="M2469 515 c-100 -79 -121 -101 -112 -115 5 -8 20 -1 47 22 21 19 66
56 98 82 52 42 76 75 52 73 -4 0 -42 -28 -85 -62z"/>
<path d="M865 508 c-46 -32 -92 -67 -103 -78 -22 -21 -14 -43 8 -25 8 5 46 33
85 62 108 79 130 99 109 100 -9 0 -54 -26 -99 -59z"/>
<path d="M1129 503 c-113 -85 -121 -92 -121 -104 0 -14 28 -14 37 0 4 6 49 42
100 80 89 65 111 89 81 87 -7 0 -51 -29 -97 -63z"/>
<path d="M1383 501 c-44 -36 -80 -70 -81 -75 -4 -27 25 -13 86 42 36 33 77 65
90 71 29 13 31 28 4 28 -11 0 -56 -30 -99 -66z"/>
<path d="M1583 537 c-19 -16 -57 -45 -84 -64 -51 -36 -58 -47 -40 -58 13 -8
169 119 169 138 0 20 -6 18 -45 -16z"/>
<path d="M2058 524 c-84 -61 -117 -96 -106 -108 7 -6 25 3 50 26 22 20 63 52
90 72 28 19 50 39 50 44 0 18 -28 7 -84 -34z"/>
<path d="M475 503 c-72 -49 -92 -72 -64 -72 20 0 145 85 157 106 17 33 -11 22
-93 -34z"/>
<path d="M746 520 c-26 -20 -65 -49 -86 -63 -46 -31 -57 -46 -43 -59 6 -7 36
11 83 50 41 34 88 72 104 84 27 20 28 23 10 24 -12 0 -43 -16 -68 -36z"/>
<path d="M601 500 c-91 -62 -110 -81 -97 -94 7 -8 20 -2 39 16 16 15 48 39 71
54 54 35 79 55 79 63 0 16 -30 3 -92 -39z"/>
<path d="M5483 462 c-91 -80 -116 -115 -82 -115 9 0 26 13 40 30 13 17 56 57
95 90 39 33 71 65 71 70 0 23 -35 2 -124 -75z"/>
<path d="M5573 449 c-53 -58 -59 -71 -35 -71 18 0 101 92 101 112 0 24 -14 15
-66 -41z"/>
<path d="M5628 436 c-19 -21 -22 -30 -12 -39 10 -10 18 -7 38 15 15 15 27 33
27 39 0 20 -28 12 -53 -15z"/>
</g>
</svg>
