<?xml version="1.0" encoding="UTF-8" standalone="no"?>
<svg width="3711px" height="3912px" viewBox="0 0 3711 3912" version="1.1" xmlns="http://www.w3.org/2000/svg" xmlns:xlink="http://www.w3.org/1999/xlink">
    <!-- Generator: Sketch 39.1 (31720) - http://www.bohemiancoding.com/sketch -->
    <title>Group</title>
    <desc>Created with Sketch.</desc>
    <defs></defs>
    <g id="Page-1" stroke="none" stroke-width="1" fill="none" fill-rule="evenodd">
        <g id="Group" transform="translate(1855.980456, 1955.975348) rotate(0.000000) translate(-1855.980456, -1955.975348) translate(0.980456, -0.024652)" fill="#477EB5">
            <path d="M3119,3902 C3110,3896 3091,3891 3077,3891 C3063,3891 3037,3887 3019,3881 C3002,3876 2952,3861 2909,3848 C2865,3835 2825,3820 2820,3816 C2814,3811 2802,3807 2792,3807 C2782,3807 2753,3797 2728,3785 C2703,3772 2673,3758 2662,3754 C2602,3732 2317,3587 2262,3550 C2236,3533 2226,3533 2164,3544 C2081,3560 1625,3553 1528,3534 C1493,3528 1447,3520 1425,3517 C1404,3513 1383,3507 1380,3501 C1377,3496 1364,3492 1352,3492 C1318,3492 1195,3449 1115,3409 C1090,3397 1065,3387 1060,3387 C1048,3387 884,3286 806,3230 C717,3166 586,3033 506,2928 C470,2880 441,2838 441,2835 C441,2832 428,2809 412,2785 C379,2736 303,2583 284,2526 C277,2506 267,2480 262,2468 C248,2432 223,2334 209,2253 C194,2171 185,2001 196,2001 C201,2001 223,2030 246,2065 C367,2253 672,2576 878,2736 C1028,2852 1081,2891 1192,2964 C1261,3010 1344,3062 1376,3079 C1407,3097 1457,3125 1486,3141 C1573,3192 1594,3201 1611,3194 C1647,3181 1620,3135 1556,3103 C1541,3094 1502,3068 1470,3043 C1438,3018 1388,2979 1357,2956 C1280,2897 976,2592 883,2480 C706,2268 535,2020 404,1786 C304,1606 215,1429 179,1334 C174,1323 166,1301 160,1287 C154,1273 143,1244 137,1224 C130,1204 120,1178 116,1166 C106,1141 69,1014 54,956 C25,841 1.13874188e-13,671 1.13874188e-13,593 C1.13874188e-13,529 21,393 36,347 C59,282 113,184 146,149 C200,91 300,27 337,27 C347,27 358,23 361,18 C378,-9 637,-3 772,27 C801,33 837,41 853,44 C869,48 885,55 888,60 C891,65 903,69 914,69 C926,69 945,74 958,81 C1007,106 1019,111 1033,111 C1053,111 1379,274 1435,312 C1459,329 1482,342 1486,342 C1489,342 1514,357 1540,375 L1588,408 L1689,395 C1853,374 2208,389 2357,424 C2380,430 2416,438 2436,442 C2482,451 2593,487 2617,500 C2627,505 2641,510 2649,510 C2668,510 2871,613 2945,661 C3073,744 3217,876 3314,998 C3366,1066 3402,1116 3402,1125 C3402,1128 3415,1151 3431,1175 C3458,1215 3516,1330 3541,1392 C3547,1406 3556,1426 3561,1436 C3566,1447 3570,1464 3570,1475 C3570,1487 3575,1499 3581,1502 C3617,1525 3535,1529 3015,1529 C2481,1529 2449,1527 2432,1509 C2423,1499 2415,1482 2415,1471 C2415,1436 2361,1344 2307,1289 C2254,1235 2197,1201 2121,1178 C2074,1164 1846,1164 1790,1178 C1687,1204 1546,1299 1508,1369 C1438,1497 1402,1619 1409,1702 L1412,1744 L2510,1749 L3607,1754 L3610,1865 C3615,2015 3593,2222 3558,2363 C3532,2466 3525,2491 3515,2516 C3496,2561 3483,2594 3475,2615 C3458,2663 3417,2744 3389,2785 C3373,2809 3360,2832 3360,2835 C3360,2850 3222,3021 3161,3083 C3099,3144 2928,3282 2913,3282 C2910,3282 2887,3295 2863,3311 C2823,3338 2708,3396 2646,3421 C2632,3427 2612,3436 2602,3441 C2591,3446 2576,3450 2567,3450 C2558,3450 2543,3454 2533,3460 C2523,3465 2495,3474 2470,3481 C2401,3499 2407,3508 2531,3573 C2704,3666 2824,3723 2845,3723 C2854,3723 2867,3727 2872,3732 C2889,3748 3014,3787 3142,3816 C3202,3830 3360,3832 3394,3819 C3407,3813 3438,3803 3464,3795 C3523,3778 3624,3679 3641,3622 C3671,3519 3677,3478 3671,3427 C3661,3342 3647,3260 3633,3214 C3627,3191 3618,3160 3615,3146 C3612,3131 3605,3113 3599,3106 C3587,3092 3595,3062 3611,3062 C3624,3062 3654,3121 3654,3146 C3654,3157 3658,3168 3663,3171 C3668,3174 3676,3192 3680,3211 C3683,3230 3692,3271 3698,3303 C3711,3370 3714,3619 3702,3665 C3687,3723 3663,3766 3624,3805 C3581,3847 3506,3891 3475,3891 C3464,3891 3453,3896 3449,3902 C3441,3915 3140,3915 3119,3902 L3119,3902 Z M2132,2735 C2248,2697 2341,2617 2388,2512 C2419,2444 2427,2413 2433,2324 L2438,2253 L1916,2253 L1394,2253 L1401,2319 C1413,2428 1438,2496 1499,2581 C1535,2631 1644,2715 1672,2715 C1680,2715 1691,2719 1696,2724 C1750,2770 2005,2777 2132,2735 L2132,2735 Z M504,1022 C570,932 737,768 836,697 C907,646 1088,548 1163,519 C1208,502 1244,487 1262,477 C1273,472 1289,468 1298,468 C1308,468 1331,464 1349,458 C1366,453 1401,443 1425,436 C1450,428 1470,419 1470,414 C1470,407 1240,291 1176,266 C1162,260 1142,251 1132,246 C1121,241 1104,237 1093,237 C1081,237 1069,232 1066,227 C1062,221 1048,216 1034,216 C1020,216 1007,212 1003,207 C1000,202 982,195 963,191 C945,188 906,180 877,174 C792,155 604,149 548,163 C431,194 342,258 313,330 C281,413 282,584 315,720 C322,746 330,783 333,801 C336,820 343,838 348,841 C353,845 357,856 357,868 C357,879 362,899 369,912 C393,959 399,972 399,982 C399,999 442,1088 450,1087 C454,1087 478,1058 504,1022 L504,1022 Z" id="Shape" transform="translate(1854.778535, 1956.253729) scale(1, -1) translate(-1854.778535, -1956.253729) "></path>
        </g>
    </g>
</svg>