<?xml version="1.0" encoding="UTF-8" standalone="no"?>
<svg width="429px" height="310px" viewBox="0 0 429 310" version="1.1" xmlns="http://www.w3.org/2000/svg" xmlns:xlink="http://www.w3.org/1999/xlink">
    <!-- Generator: Sketch 39.1 (31720) - http://www.bohemiancoding.com/sketch -->
    <title>js-logo</title>
    <desc>Created with Sketch.</desc>
    <defs></defs>
    <g id="Page-1" stroke="none" stroke-width="1" fill="none" fill-rule="evenodd">
        <g id="js-logo" fill="#000000">
            <path d="M5.65,246.47375 L53.8625,217.29625 C63.16375,233.7875 71.625,247.74 91.92,247.74 C111.37375,247.74 123.63875,240.13025 123.63875,210.53 L123.63875,9.23 L182.8425,9.23 L182.8425,211.3675 C182.8425,272.6875 146.89875,300.59875 94.4575,300.59875 C47.09625,300.59875 19.605,276.07 5.65,246.46875" id="j"></path>
            <path d="M215,240.13 L263.20625,212.21875 C275.89625,232.9425 292.38875,248.16625 321.5675,248.16625 C346.09875,248.16625 361.74125,235.9015 361.74125,218.985 C361.74125,198.68625 345.6725,191.49625 318.60625,179.65875 L303.80875,173.31125 C261.09375,155.13 232.75875,132.29375 232.75875,84.08375 C232.75875,39.68 266.59,5.84625 319.45375,5.84625 C357.09125,5.84625 384.15625,18.9575 403.6075,53.2125 L357.51125,82.81375 C347.36125,64.63125 336.36875,57.4425 319.45375,57.4425 C302.115,57.4425 291.11875,68.4375 291.11875,82.81375 C291.11875,100.57625 302.115,107.76625 327.48625,118.7625 L342.28625,125.105 C392.61125,146.67375 420.94625,168.6625 420.94625,218.13875 C420.94625,271.42625 379.08,300.60375 322.83625,300.60375 C267.86,300.60375 232.33625,274.38625 215,240.13" id="s"></path>
        </g>
    </g>
</svg>