<?xml version="1.0" encoding="UTF-8" standalone="no"?>
<svg width="416px" height="296px" viewBox="0 0 416 296" version="1.1" xmlns="http://www.w3.org/2000/svg" xmlns:xlink="http://www.w3.org/1999/xlink">
    <!-- Generator: Sketch 41.2 (35397) - http://www.bohemiancoding.com/sketch -->
    <title>js-logo-transparent</title>
    <desc>Created with Sketch.</desc>
    <defs></defs>
    <g id="Page-1" stroke="none" stroke-width="1" fill="none" fill-rule="evenodd">
        <g id="js-logo-transparent" fill="#F7DF1E">
            <g id="Page-1">
                <g id="js-logo">
                    <path d="M0.65,241.47375 L48.8625,212.29625 C58.16375,228.7875 66.625,242.74 86.92,242.74 C106.37375,242.74 118.63875,235.13025 118.63875,205.53 L118.63875,4.23 L177.8425,4.23 L177.8425,206.3675 C177.8425,267.6875 141.89875,295.59875 89.4575,295.59875 C42.09625,295.59875 14.605,271.07 0.65,241.46875" id="j"></path>
                    <path d="M210,235.13 L258.20625,207.21875 C270.89625,227.9425 287.38875,243.16625 316.5675,243.16625 C341.09875,243.16625 356.74125,230.9015 356.74125,213.985 C356.74125,193.68625 340.6725,186.49625 313.60625,174.65875 L298.80875,168.31125 C256.09375,150.13 227.75875,127.29375 227.75875,79.08375 C227.75875,34.68 261.59,0.84625 314.45375,0.84625 C352.09125,0.84625 379.15625,13.9575 398.6075,48.2125 L352.51125,77.81375 C342.36125,59.63125 331.36875,52.4425 314.45375,52.4425 C297.115,52.4425 286.11875,63.4375 286.11875,77.81375 C286.11875,95.57625 297.115,102.76625 322.48625,113.7625 L337.28625,120.105 C387.61125,141.67375 415.94625,163.6625 415.94625,213.13875 C415.94625,266.42625 374.08,295.60375 317.83625,295.60375 C262.86,295.60375 227.33625,269.38625 210,235.13" id="s"></path>
                </g>
            </g>
        </g>
    </g>
</svg>