<?xml version="1.0" encoding="UTF-8" standalone="no"?>
<svg width="824px" height="926px" viewBox="0 0 824 926" version="1.1" xmlns="http://www.w3.org/2000/svg" xmlns:xlink="http://www.w3.org/1999/xlink">
    <!-- Generator: Sketch 39.1 (31720) - http://www.bohemiancoding.com/sketch -->
    <title>Group</title>
    <desc>Created with Sketch.</desc>
    <defs></defs>
    <g id="Page-1" stroke="none" stroke-width="1" fill="none" fill-rule="evenodd">
        <g id="Group">
            <polygon id="Shape" fill="#CC0000" points="25.6977778 233.482667 418.506668 4.77244444 811.315556 233.482667 811.315556 690.536 418.506668 919.246224 25.6977778 690.536"></polygon>
            <polygon id="Shape" fill="#FFFFFF" points="429.52 461.825776 794.795556 251.471111 809.48 675.484444 429.52 904.928888"></polygon>
            <path d="M800.302224,238.622222 L799.200888,687.966224 L418.139556,908.967112 L416.304,467.332444 L800.302224,238.622222 L800.302224,238.622222 L800.302224,238.622222 Z M479.814224,504.043556 L480.915556,799.200888 L607.568888,725.411556 L607.201776,502.942224 L671.079112,465.129776 L671.079112,688.333332 L734.956444,650.888 L735.323556,352.059556 L479.814224,504.043556 L479.814224,504.043556 L479.814224,504.043556 Z" id="Shape" fill="#CC0000"></path>
            <path d="M443.470224,8.07644444 C425.848888,-1.83555556 397.581332,-1.83555556 379.96,8.07644444 L31.9386667,208.152 C14.3173333,218.064 0.367111112,243.027556 0.367111112,262.851556 L0.367111112,663.002668 C0.367111112,683.193776 14.6844444,707.790224 31.9386667,717.702224 L379.96,917.777776 C397.581332,927.689776 425.848888,927.689776 443.470224,917.777776 L791.491556,717.702224 C809.112888,707.790224 823.063112,682.826668 823.063112,663.002668 L823.063112,262.851556 C823.063112,242.660444 808.745776,218.064 791.491556,208.152 L443.470224,8.07644444 L443.470224,8.07644444 L443.470224,8.07644444 Z M752.210668,217.329778 C769.832,227.241778 769.832,243.761778 752.210668,253.673778 L447.508444,428.785776 C429.887112,438.697776 401.619556,438.697776 383.998224,428.785776 L74.8906668,251.104 C57.2693332,241.192 57.2693332,224.672 74.8906668,214.76 L379.592888,39.648 C397.214224,29.736 425.481776,29.736 443.103112,39.648 L752.210668,217.329778 L752.210668,217.329778 L752.210668,217.329778 Z M27.5333333,291.853333 C27.5333333,271.662222 41.8506668,263.585778 59.1048888,273.497778 L370.782224,452.648 C388.403556,462.56 402.353776,487.523556 402.353776,507.347556 L402.353776,862.711112 C402.353776,882.902224 388.036444,890.978668 370.782224,881.066668 L59.1048888,701.916444 C41.4835556,692.004444 27.5333333,667.040888 27.5333333,647.216888 L27.5333333,291.853333 L27.5333333,291.853333 L27.5333333,291.853333 Z M461.825776,875.56 C444.204444,885.472 430.254224,877.395556 430.254224,857.204444 L430.254224,507.347556 C430.254224,487.156444 444.571556,462.56 461.825776,452.648 L764.325332,279.004444 C781.946668,269.092444 795.896888,277.168889 795.896888,297.36 L795.896888,647.216888 C795.896888,667.408 781.579556,692.004444 764.325332,701.916444 L461.825776,875.56 L461.825776,875.56 L461.825776,875.56 Z" id="Shape" fill="#910505"></path>
        </g>
    </g>
</svg>