<?xml version="1.0" encoding="UTF-8" standalone="no"?>
<svg width="1505px" height="460px" viewBox="0 0 1505 460" version="1.1" xmlns="http://www.w3.org/2000/svg" xmlns:xlink="http://www.w3.org/1999/xlink" style="background: #222222;">
    <!-- Generator: Sketch 41.2 (35397) - http://www.bohemiancoding.com/sketch -->
    <title>platforms</title>
    <desc>Created with Sketch.</desc>
    <defs></defs>
    <g id="Page-1" stroke="none" stroke-width="1" fill="none" fill-rule="evenodd" opacity="0.5">
        <g id="platforms" fill="#FFFFFF">
            <g id="Layer-1" transform="translate(544.659209, 59.179793)">
                <path d="M146.089048,188.073583 L146.089048,327.52222 L0,307.386779 L0,188.073583 L146.089048,188.073583 L146.089048,188.073583 Z M146.089048,28.91792 L146.089048,170.080211 L0,170.080211 L0,49.0533606 L146.089048,28.91792 L146.089048,28.91792 Z M356.44014,188.073583 L356.44014,356.44014 L162.154559,329.664288 L162.154559,188.073583 L356.44014,188.073583 L356.44014,188.073583 Z M356.44014,0 L356.44014,170.080211 L162.154559,170.080211 L162.154559,26.7758518 L356.44014,0 L356.44014,0 Z" id="svg_1"></path>
            </g>
            <g id="Group" transform="translate(203.500000, 216.500000) scale(1, -1) rotate(0.000000) translate(-203.500000, -216.500000) translate(61.000000, 47.000000)">
                <path d="M209.721792,337.927839 C195.143467,336.153452 177.879216,327.99127 166.949695,317.682925 C153.030182,304.569357 143.975742,286.74099 142.489192,269.453388 C142.28648,267.05374 142.354051,260.12518 142.60744,258.756367 L142.708796,258.181803 L146.374493,258.181803 C153.79035,258.181803 159.837905,259.398526 166.679414,262.288243 C180.413108,268.067676 194.417084,280.826365 203.336384,295.731219 C208.589987,304.518661 211.630657,313.120214 213.015851,323.124379 C213.336811,325.507128 213.539522,334.108681 213.319918,336.525228 L213.184777,338.113727 L212.475288,338.147525 C212.086758,338.164424 210.836704,338.06303 209.721792,337.927839 L209.721792,337.927839 Z" id="Shape"></path>
                <path d="M202.930961,257.995915 C193.302172,257.336857 183.892986,255.021704 169.365339,249.749239 C161.307563,246.825725 152.270015,243.851513 148.62121,242.938971 C145.867714,242.263014 144.955513,242.161621 143.164896,242.381307 C139.347166,242.871376 131.10357,245.389316 120.326083,249.360564 C104.886235,255.038603 95.7304385,257.184767 86.9800649,257.167868 C69.4962103,257.13407 52.0123558,251.118052 37.4002454,240.116851 C26.6903287,232.039164 17.990633,221.460435 11.4194065,208.498959 C5.06778393,195.926157 1.48654995,182.204229 0.21960397,165.389796 C-0.0675704525,161.672033 -0.0675704525,149.758289 0.21960397,145.770142 C1.36830166,129.42888 4.22315328,114.845106 9.4091855,98.6728335 C16.200016,77.4646804 25.7274498,58.2506006 37.7887755,41.4361685 C45.7958742,30.2997757 51.6913961,23.0501361 57.5193477,17.2031075 C65.4419832,9.29440973 71.911854,4.74859843 78.9729663,2.1461637 C89.4801717,-1.7067916 99.4805986,-0.47316995 118.569251,7.01305461 C124.988444,9.54789363 129.988658,11.068797 135.411187,12.1503284 C145.496077,14.1613006 153.993061,14.1106039 163.689421,11.9644402 C168.807883,10.8322121 172.693184,9.58169149 179.568477,6.89476213 C189.720938,2.90661541 196.71448,1.08153131 203.927626,0.506967803 C213.539522,-0.236584975 223.793339,3.10940253 232.628175,9.88587217 C240.601489,15.9863847 248.321413,24.7738267 259.115793,39.932164 C269.437179,54.4314432 277.00507,68.9138234 283.052625,85.7113566 C283.711437,87.5195418 284.353357,89.2939291 284.488497,89.6657055 L284.758779,90.3416626 L283.643867,90.8148325 C276.836144,93.7383469 269.538535,98.4024506 263.643013,103.590421 C247.831527,117.498238 239.655502,133.738107 238.084489,154.253404 C237.814207,157.802178 237.966241,166.184046 238.354771,169.462438 C239.351435,177.810508 241.378549,184.924956 244.740179,191.904213 C250.466775,203.801057 259.842175,213.974211 272.86638,222.440573 C274.336037,223.386913 275.535412,224.214961 275.535412,224.282556 C275.535412,224.333253 274.944171,225.1613 274.234681,226.090741 C263.963973,239.795771 250.56813,248.954989 233.405235,254.007768 C223.573735,256.914384 211.022523,258.55358 202.930961,257.995915 L202.930961,257.995915 Z" id="Shape"></path>
            </g>
            <g id="Group" transform="translate(1107.194105, 61.848646)">
                <path d="M350.737007,175.370359 C350.737007,272.219133 272.220371,350.735769 175.366647,350.735769 C78.5129241,350.735769 0,272.220371 0,175.370359 C0,78.5141614 78.5116868,0 175.36541,0 C272.219133,0 350.737007,78.5141614 350.737007,175.370359 Z M56.1199008,151.957784 C43.1861914,151.957784 32.7060882,162.437887 32.7060882,175.371597 C32.7060882,188.300357 43.1861914,198.781697 56.1199008,198.781697 C69.0486609,198.781697 79.5300014,188.300357 79.5300014,175.371597 C79.5300014,162.43665 69.0498982,151.957784 56.1199008,151.957784 Z M223.290538,258.369807 C212.091552,264.834806 208.258334,279.148127 214.720858,290.342164 C221.187094,301.54115 235.499178,305.376844 246.698164,298.911845 C257.893439,292.448083 261.729132,278.134762 255.264133,266.937013 C248.800372,255.742976 234.485813,251.906046 223.290538,258.369807 Z M106.976241,175.367885 C106.976241,152.228757 118.474659,131.7907 136.058218,119.415022 L118.941128,90.7425982 C98.4511038,104.43231 83.209792,125.360346 76.8784239,149.871662 C84.2738875,155.899887 88.9992139,165.079566 88.9992139,175.370359 C88.9992139,185.658678 84.2738875,194.838357 76.8771866,200.865345 C83.2073174,225.379135 98.4498665,246.307171 118.939891,259.995646 L136.058218,231.320747 C118.474659,218.947544 106.976241,198.510724 106.976241,175.367885 Z M175.369122,106.975004 C211.099221,106.975004 240.407628,134.370513 243.479894,169.30254 L276.847949,168.815036 C275.206025,143.024331 263.940223,119.864169 246.6264,102.842354 C237.725117,106.20539 227.441748,105.695614 218.554076,100.56321 C209.655268,95.4258556 204.071242,86.7596641 202.541914,77.3547923 C193.89057,74.9605774 184.78513,73.6552045 175.370359,73.6552045 C159.178786,73.6552045 143.881794,77.4562525 130.293542,84.1872751 L146.559356,113.338542 C155.315871,109.264046 165.07338,106.975004 175.369122,106.975004 Z M175.369122,243.762003 C165.072142,243.762003 155.315871,241.472961 146.558118,237.398465 L130.289831,266.552206 C143.87932,273.280754 159.177548,277.08304 175.369122,277.08304 C184.783892,277.08304 193.889333,275.777667 202.541914,273.383452 C204.071242,263.97858 209.656506,255.312388 218.556551,250.171322 C227.444223,245.041392 237.727592,244.531616 246.628874,247.89589 C263.94146,230.872837 275.207262,207.712675 276.846711,181.92197 L243.478657,181.434466 C240.408865,216.371443 211.099221,243.762003 175.369122,243.762003 Z M223.286826,92.3647252 C234.484575,98.8321985 248.799134,94.9952682 255.261658,83.8012312 C261.727894,72.6022449 257.894676,58.2889233 246.69569,51.8226873 C235.499178,45.3589259 221.185856,49.1946189 214.71962,60.3936052 C208.255859,71.5876422 212.091552,85.9022011 223.286826,92.3647252 Z" id="Combined-Shape"></path>
            </g>
        </g>
    </g>
</svg>